<svg width="120" height="121" viewBox="0 0 120 121" fill="none" xmlns="http://www.w3.org/2000/svg">
<path fill-rule="evenodd" clip-rule="evenodd" d="M117.208 75.9957V76.3742C118.575 76.3742 119.71 75.321 119.71 74.0246C119.705 73.4099 119.44 72.8216 118.972 72.3869C118.504 71.9522 117.87 71.7059 117.208 71.7012V72.052C118.371 72.052 119.332 72.9176 119.332 73.9977C119.332 75.104 118.371 75.9957 117.208 75.9957Z" fill="black"/>
<path fill-rule="evenodd" clip-rule="evenodd" d="M117.208 73.9439V74.2139H117.441L117.877 75.2133H118.255L117.703 74.1062C118.372 73.9447 118.372 72.8368 117.325 72.8368H117.208V73.0799H117.354C118.109 73.0799 118.022 73.9447 117.296 73.9447L117.208 73.9439ZM117.208 72.052V71.7012C115.87 71.7012 114.735 72.7544 114.735 74.0246C114.735 75.321 115.87 76.3742 117.208 76.3742V75.9957C116.045 75.9957 115.084 75.104 115.084 73.9977C115.087 73.4757 115.312 72.9759 115.71 72.6067C116.107 72.2376 116.646 72.0289 117.208 72.0259V72.052Z" fill="black"/>
<path fill-rule="evenodd" clip-rule="evenodd" d="M117.208 73.079V72.8358H116.392V75.2123H116.713V74.2138H117.208V73.9437H116.713V73.079H117.208ZM16.9019 78.022V79.0483C15.1232 77.8837 12.9989 77.2608 10.8224 77.2658H10.7934C4.8871 77.2658 0 81.7765 0 87.2865C0 92.7697 4.8871 97.3073 10.7926 97.3073H10.8216C13.1193 97.3073 15.185 96.6318 16.901 95.497V96.4972H21.5553V78.022H16.9019ZM10.8216 92.7697H10.7926C7.5345 92.7697 4.9161 90.3116 4.9161 87.2865C4.9161 84.2876 7.53362 81.8026 10.7926 81.8026H10.8216C14.0506 81.8026 16.727 84.2876 16.727 87.2865C16.727 90.3116 14.0506 92.7697 10.8216 92.7697ZM94.6035 78.049V79.0483C92.8584 77.9421 90.7048 77.2658 88.466 77.2658H88.437C82.5316 77.2658 77.6445 81.7765 77.6445 87.2865C77.6445 92.7966 82.5316 97.3073 88.437 97.3073H88.466C90.7057 97.3073 92.8584 96.6318 94.6035 95.5239V96.5233H99.2296V78.049H94.6035ZM88.466 92.7966H88.437C85.208 92.7966 82.5605 90.3116 82.5605 87.2865C82.5605 84.3145 85.208 81.8303 88.437 81.8303H88.466C91.6951 81.8303 94.3715 84.3153 94.3715 87.2865C94.3706 90.3116 91.6942 92.7966 88.466 92.7966ZM40.1749 71.7549V79.0475C38.458 77.9943 36.3352 77.265 34.0946 77.265H34.0656C28.1311 77.265 23.302 81.8026 23.302 87.2588C23.302 92.7958 28.1311 97.3064 34.0656 97.3064H34.0946C36.3352 97.3064 38.4879 96.631 40.1749 95.5231V96.4955H44.8292V71.7549H40.1749ZM34.0946 92.7697H34.0656C30.8365 92.7697 28.1891 90.3116 28.1891 87.2596C28.1891 84.2876 30.8365 81.8034 34.0656 81.8034H34.0946C37.3237 81.8034 40.0001 84.2884 40.0001 87.2596C40.0001 90.3116 37.3237 92.7697 34.0946 92.7697ZM71.4183 71.7549V79.0475C69.6425 77.9943 67.5197 77.265 65.28 77.265H65.2518C59.3754 77.265 54.5164 81.8026 54.5164 87.2588C54.5164 92.7958 59.3745 97.3064 65.2518 97.3064H65.28C67.5205 97.3064 69.6724 96.631 71.4183 95.5231V96.4955H75.9855V71.7549H71.4183ZM65.28 92.7697H65.2518C62.0219 92.7697 59.4044 90.3116 59.4044 87.2596C59.4044 84.2876 62.0219 81.8034 65.2518 81.8034H65.28C68.509 81.8034 71.1863 84.2884 71.1863 87.2596C71.1863 90.3116 68.509 92.7697 65.28 92.7697ZM48.1162 76.5087H52.7714V71.8087H48.1162V76.5087ZM48.1162 96.5502H52.7714V78.1028H48.1162V96.5502ZM101.178 90.5278C101.294 95.1731 105.862 97.415 110.865 97.335C116.363 97.2534 120.057 94.9308 119.999 90.7171C119.883 83.3436 106.909 85.8556 106.909 82.8036C106.909 81.5064 108.101 80.9663 110.313 80.9663C113.106 80.9663 113.688 82.155 113.92 83.4522H119.011C118.894 81.2919 116.887 77.0496 110.08 77.0496C104.233 77.0496 101.643 79.9939 101.643 83.5868C101.643 90.8256 114.502 88.2321 114.502 91.5818C114.502 92.4466 113.541 93.6352 110.953 93.6352C108.625 93.6352 106.763 92.6897 106.763 90.5286L101.178 90.5278Z" fill="black"/>
<path fill-rule="evenodd" clip-rule="evenodd" d="M48.1158 71.8088H71.4178L52.2182 38.7753L34.1231 47.8513L48.1158 71.8088ZM55.2136 30.2132L73.2788 21.1372L102.807 71.8088H79.418L55.2136 30.2132ZM40.2615 71.8088L31.2728 56.4126L13.2067 65.4617L16.9304 71.8088H40.2615Z" fill="#2F489A"/>
</svg>
