<svg width="120" height="121" viewBox="0 0 120 121" fill="none" xmlns="http://www.w3.org/2000/svg">
<path d="M27.9138 61.2216C27.8643 56.4374 32.1574 54.1388 32.3505 54.0293C29.9341 50.7775 26.1808 50.3306 24.8438 50.2804C21.65 49.9794 18.6097 52.0135 16.9855 52.0135C15.3614 52.0135 12.8608 50.3214 10.2117 50.3716C6.72569 50.4172 3.51206 52.2369 1.71461 55.1102C-1.9001 60.8841 0.793598 69.4583 4.32413 74.1513C6.05226 76.4453 8.10225 79.0312 10.8059 78.9355C13.4104 78.8397 14.3909 77.3848 17.5302 77.3848C20.6696 77.3848 21.5559 78.9355 24.3041 78.8899C27.1018 78.8397 28.8745 76.5456 30.5877 74.2425C32.5585 71.5744 33.3755 68.9976 33.425 68.8608C33.3607 68.838 27.9733 66.9362 27.9138 61.2216Z" fill="black"/>
<path d="M22.7493 47.1702C24.1853 45.5694 25.1509 43.3484 24.8885 41.1318C22.8236 41.2094 20.323 42.3997 18.8425 44.0005C17.5154 45.4144 16.3518 47.6765 16.6687 49.8474C18.9613 50.0116 21.3183 48.7665 22.7493 47.1702ZM46.0221 65.924L43.6453 72.5598H40.5902L48.3692 51.471H51.9344L59.7432 72.5598H56.584L54.1379 65.924H46.0221ZM53.5289 63.7941L51.2907 57.7238C50.7807 56.3464 50.444 55.0968 50.1023 53.8745H50.0379C49.6963 55.1242 49.3249 56.4057 48.8842 57.6919L46.646 63.7895L53.5289 63.7941ZM62.0606 62.3575C62.0606 60.4192 61.9962 58.8503 61.9219 57.4136H64.6057L64.7444 60.0133H64.8087C66.0318 58.1662 67.9679 57.0716 70.6517 57.0716C74.6279 57.0716 77.6137 60.1683 77.6137 64.7701C77.6137 70.2156 74.0139 72.9019 70.1417 72.9019C67.9679 72.9019 66.0665 72.0262 65.0811 70.5257H65.0167V78.7533H62.0606V62.3575ZM65.0117 66.3937C65.0117 66.8042 65.0761 67.1736 65.1504 67.5202C65.6951 69.4266 67.4925 70.7447 69.6366 70.7447C72.7958 70.7447 74.6328 68.3685 74.6328 64.8932C74.6328 61.8558 72.8997 59.2653 69.7406 59.2653C67.7055 59.2653 65.804 60.6107 65.2197 62.6767C65.1157 63.0188 65.0167 63.4293 65.0167 63.8032L65.0117 66.3937ZM80.7036 62.3575C80.7036 60.4192 80.6392 58.8503 80.5649 57.4136H83.2487L83.3874 60.0133H83.4517C84.6748 58.1662 86.6109 57.0716 89.2947 57.0716C93.2709 57.0716 96.2567 60.1683 96.2567 64.7701C96.2567 70.2156 92.6569 72.9019 88.7847 72.9019C86.6109 72.9019 84.7095 72.0262 83.7241 70.5257H83.6597V78.7533H80.7036V62.3575ZM83.6597 66.3937C83.6597 66.8042 83.7241 67.1736 83.7983 67.5202C84.343 69.4266 86.1405 70.7447 88.2846 70.7447C91.4437 70.7447 93.2808 68.3685 93.2808 64.8932C93.2808 61.8558 91.5477 59.2653 88.3885 59.2653C86.3534 59.2653 84.452 60.6107 83.8677 62.6767C83.7637 63.0188 83.6646 63.4293 83.6646 63.8032L83.6597 66.3937ZM99.3515 50.3445H102.342V72.5553H99.3515V50.3445ZM108.354 65.4861C108.418 69.2077 111.003 70.7447 113.989 70.7447C116.128 70.7447 117.42 70.4026 118.539 69.9648L119.049 71.935C117.999 72.3728 116.197 72.8745 113.583 72.8745C108.522 72.8745 105.497 69.8097 105.497 65.2399C105.497 60.67 108.418 57.0716 113.206 57.0716C118.574 57.0716 120 61.418 120 64.2046C120 64.7701 119.936 65.2034 119.896 65.4861H108.354ZM117.118 63.5159C117.153 61.7646 116.336 59.0418 112.974 59.0418C109.948 59.0418 108.626 61.6095 108.388 63.5159H117.118Z" fill="black"/>
</svg>
