<svg width="45" height="11" viewBox="0 0 45 11" fill="none" xmlns="http://www.w3.org/2000/svg">
<path d="M5.34818 8.15851H2.42981L1.71324 10.0239H0L3.96716 0.131836H4.04534L7.99947 10.0239H5.99961L5.34818 8.15851ZM4.76842 6.56872L3.92157 4.25116L3.03563 6.56872H4.76842Z" fill="#2D2650"/>
<path d="M13.2105 2.103C12.8988 2.0782 12.5874 2.15708 12.3181 2.3291C12.2085 2.41541 12.1214 2.53112 12.0655 2.6649C12.0095 2.79867 11.9866 2.94591 11.9989 3.09221C12.0067 3.25613 12.0533 3.4151 12.1344 3.55373C12.2154 3.69236 12.328 3.80597 12.4614 3.88357C12.8428 4.15699 13.2542 4.37773 13.6861 4.54068C14.0609 4.68429 14.4193 4.87394 14.7544 5.10594C15.0574 5.33209 15.3073 5.63217 15.484 5.98209C15.691 6.41819 15.7897 6.9052 15.7706 7.39524C15.7738 7.89275 15.6445 8.38068 15.3984 8.80053C15.1523 9.22037 14.7998 9.5543 14.3831 9.76227C13.8774 10.0241 13.3211 10.1502 12.761 10.1297C12.2354 10.1302 11.7127 10.0444 11.2106 9.87532C10.692 9.71224 10.2029 9.45415 9.76448 9.11222L10.5592 7.64254C10.8753 7.89516 11.2244 8.0952 11.595 8.23607C11.9312 8.38196 12.2883 8.46326 12.6503 8.4763C12.9846 8.4846 13.315 8.39685 13.6079 8.22193C13.7389 8.13574 13.8445 8.01093 13.9126 7.86205C13.9807 7.71317 14.0083 7.54637 13.9922 7.38111C13.9922 6.89357 13.5688 6.46963 12.6894 6.11634C12.2586 5.93801 11.8387 5.73034 11.4321 5.49456C11.0863 5.2895 10.7878 5.00201 10.5592 4.65373C10.3018 4.23691 10.174 3.74177 10.1944 3.24059C10.1854 2.87218 10.2487 2.5059 10.3801 2.16603C10.5115 1.82617 10.708 1.52048 10.9566 1.26924C11.5027 0.736431 12.209 0.437537 12.9434 0.42842C13.4966 0.415931 14.0483 0.496981 14.5785 0.668656C15.0399 0.840151 15.478 1.07778 15.8814 1.37523L15.2299 2.78838C14.6206 2.37935 13.9261 2.14362 13.2105 2.103Z" fill="#2D2650"/>
<path d="M24.0046 0.485337V2.32949H21.8679V10.0241H20.1286V2.32949H18.0766V0.485337H24.0046Z" fill="#2D2650"/>
<path d="M26.8451 2.32949V0.485337H32.8512V2.32949H26.8451ZM26.8451 6.18032V4.33616H32.3822V6.15206L26.8451 6.18032ZM28.5779 8.24352H33.0141V10.0523H26.8451V8.21525L28.5779 8.24352Z" fill="#2D2650"/>
<path d="M40.896 10.024C40.592 10.0946 40.2819 10.1301 39.971 10.13C39.1837 10.1366 38.4094 9.91195 37.7301 9.47999C37.2209 9.16099 36.7747 8.73627 36.4169 8.23012C36.0592 7.72397 35.7969 7.14631 35.645 6.53014C35.4932 5.91398 35.4548 5.27139 35.532 4.63912C35.6092 4.00685 35.8005 3.39728 36.0951 2.84525C36.4879 2.10376 37.0512 1.4854 37.7301 1.05055C38.4081 0.613242 39.1822 0.38242 39.971 0.38242C40.7598 0.38242 41.534 0.613242 42.2119 1.05055C42.8946 1.48731 43.4639 2.10481 43.8665 2.84525C44.1926 3.43718 44.3958 4.09903 44.4622 4.78478C44.5286 5.47053 44.4565 6.16374 44.2509 6.8162C44.1003 7.30685 43.8805 7.76925 43.5994 8.18696H45V10.024H40.896ZM37.6454 6.795C37.8851 7.24899 38.2283 7.62855 38.6421 7.89726C39.0612 8.17609 39.5445 8.32062 40.0362 8.31414C40.5128 8.31551 40.9802 8.17102 41.3846 7.89726C41.7858 7.62511 42.1155 7.2455 42.3422 6.795C42.5692 6.32395 42.6876 5.80031 42.6875 5.2688C42.6871 4.73564 42.5639 4.21103 42.3292 3.7426C42.1034 3.29778 41.7734 2.9255 41.3725 2.66345C40.9715 2.4014 40.5138 2.25886 40.0458 2.25025C39.5777 2.24165 39.1159 2.36728 38.707 2.61445C38.2981 2.86161 37.9566 3.22154 37.7171 3.65781C37.6995 3.68449 37.6842 3.71287 37.6715 3.7426C37.4308 4.20846 37.3072 4.7348 37.3132 5.2688C37.2983 5.80037 37.4129 6.32681 37.6454 6.795Z" fill="#2D2650"/>
</svg>
