<svg width="273" height="273" viewBox="0 0 273 273" fill="none" xmlns="http://www.w3.org/2000/svg">
<g clip-path="url(#clip0_642_1440)">
<path d="M270.584 0.131592H3.05652V161.543H26.2313V23.3064H247.409V161.543H270.584V0.131592ZM53.8785 161.543H26.2313V189.19H53.8785V161.543ZM53.8785 189.19H81.5258V216.837H109.173V244.484H81.5258V216.837H53.8785V189.19ZM109.173 244.484V272.132H164.468V244.484H192.115V216.837H164.468V244.484H109.173ZM247.409 161.543H219.762V189.19H192.115V216.837H219.762V189.19H247.409V161.543Z" fill="#2D2650"/>
<path fill-rule="evenodd" clip-rule="evenodd" d="M110.054 95.6067H94.0073V170.489H179.587V95.6067H163.541H152.843H120.751H110.054ZM168.89 106.304H120.751H104.705V159.792H168.89V106.304Z" fill="#DFDC01"/>
<path d="M142.146 122.35H131.448V143.745H142.146V122.35Z" fill="#DFDC01"/>
<path d="M120.751 63.5144H152.843V74.2119H163.541V95.6068H152.843V74.2119H120.751V95.6068H110.053V74.2119H120.751V63.5144Z" fill="#DFDC01"/>
</g>
<defs>
<clipPath id="clip0_642_1440">
<rect width="272" height="272" fill="white" transform="translate(0.822266 0.131592)"/>
</clipPath>
</defs>
</svg>
