<svg width="1181" height="1183" viewBox="0 0 1181 1183" fill="none" xmlns="http://www.w3.org/2000/svg">
<g clip-path="url(#clip0_2154_80)">
<path d="M102.081 800.797L105.09 809.036L51.2835 828.7L45.2659 812.227L100.172 792.16L101.272 791.758L100.87 790.658L90.6387 762.645L90.2368 761.544L89.1365 761.947L34.2303 782.013L28.2129 765.539L82.019 745.875L85.0277 754.109L85.4296 755.209L86.5297 754.807L94.7637 751.799L111.013 796.287L102.779 799.295L101.679 799.696L102.081 800.797ZM97.6462 873.74L93.4122 866.062L101.09 861.826L102.115 861.26L101.549 860.235L96.7498 851.531L96.1842 850.506L95.1585 851.071L70.0772 864.905L61.6097 849.55L120.474 817.076L128.942 832.431L112.563 841.469L111.537 842.034L112.103 843.06L116.337 850.738L108.66 854.973L107.635 855.539L108.2 856.564L112.434 864.242L104.757 868.478L103.732 869.044L104.297 870.069L109.097 878.777L109.662 879.804L110.688 879.237L144.471 860.598L152.939 875.958L94.0744 908.431L85.6063 893.071L93.2833 888.835L94.3085 888.27L93.7431 887.244L89.5095 879.566L97.1864 875.331L98.2117 874.765L97.6462 873.74ZM201.763 939.566L148.562 980.671L107.469 927.452L113.48 922.81L143.139 961.22L143.855 962.147L144.782 961.431L160.512 949.278L161.439 948.562L160.723 947.635L137.139 917.089L143.15 912.447L166.734 942.988L167.45 943.915L168.377 943.199L184.107 931.046L185.033 930.33L184.318 929.403L154.658 890.994L160.67 886.347L201.763 939.566ZM259.745 994.947L213.461 1043.71L200.745 1031.64L206.781 1025.28L207.587 1024.43L206.738 1023.62L200.38 1017.59L206.417 1011.22L207.222 1010.37L206.373 1009.57L199.166 1002.72L198.316 1001.92L197.51 1002.77L191.474 1009.13L185.116 1003.09L184.267 1002.28L183.46 1003.13L177.424 1009.49L164.708 997.416L210.992 948.65L223.708 960.725L197.145 988.715L196.339 989.564L197.188 990.37L204.395 997.214L205.245 998.021L206.051 997.171L218.929 983.602L224.438 988.833L211.56 1002.4L210.754 1003.25L211.603 1004.06L218.81 1010.9L219.66 1011.71L220.466 1010.86L247.029 982.871L259.745 994.947Z" stroke="#DFDC01" stroke-width="2.34252"/>
<path d="M80.997 483.56L71.4049 480.961L68.8071 490.557L11.2522 474.967L16.4472 455.777L74.0022 471.366L81.7945 442.58L24.2398 426.99L29.4348 407.8L86.9896 423.389L84.3923 432.984L93.9849 435.583L80.997 483.56Z" fill="#2D2650"/>
<path d="M69.5179 572.688L0.378418 564.998L2.57529 545.236L12.4523 546.334L13.5508 536.458L23.4278 537.556L24.5263 527.675L34.4033 528.773L35.5018 518.892L5.87058 515.597L8.06747 495.838L77.2069 503.528L75.0101 523.291L55.256 521.089L54.1573 530.97L44.2804 529.872L43.182 539.753L33.3049 538.655L32.2065 548.536L71.7147 552.93L69.5179 572.688Z" fill="#2D2650"/>
<path d="M72.9145 652.648L3.41298 655.63L0.42722 586.108L10.356 585.686L12.4887 635.341L32.3463 634.491L30.6402 594.762L40.569 594.334L42.2751 634.063L62.1328 633.208L60.0001 583.548L69.9286 583.121L72.9145 652.648Z" fill="#2D2650"/>
<path d="M88.5062 731.141L20.2809 744.735L16.398 725.236L26.1444 723.293L24.203 713.546L33.9494 711.602L32.008 701.85L22.2615 703.793L20.3201 694.046L10.5736 695.985L6.69071 676.486L74.916 662.892L78.7988 682.391L39.813 690.16L41.7544 699.912L61.2473 696.025L63.1887 705.777L43.6959 709.659L45.6374 719.411L84.6234 711.642L88.5062 731.141Z" fill="#2D2650"/>
<path d="M235.965 209.336L229.627 201.679L221.972 208.019L183.944 162.078L199.253 149.398L237.281 195.339L260.245 176.318L222.216 130.378L237.525 117.698L275.554 163.639L267.899 169.979L274.238 177.636L235.965 209.336Z" fill="white"/>
<path d="M175.197 275.525L123.151 229.353L136.339 214.478L143.774 221.074L150.368 213.636L157.803 220.233L164.398 212.795L171.833 219.391L178.427 211.954L156.121 192.166L169.309 177.291L221.356 223.463L208.167 238.338L193.297 225.146L186.703 232.583L179.268 225.987L172.674 233.424L165.239 226.829L158.645 234.266L188.385 260.65L175.197 275.525Z" fill="white"/>
<path d="M131.869 342.801L73.3696 305.143L111.016 246.627L119.373 252.007L92.4827 293.804L109.197 304.563L130.709 271.125L139.066 276.505L117.554 309.943L134.268 320.702L161.158 278.905L169.515 284.285L131.869 342.801Z" fill="white"/>
<path d="M99.3475 415.919L35.7749 387.664L43.8456 369.495L52.9273 373.531L56.9626 364.447L66.0444 368.483L70.0797 359.399L60.9979 355.362L65.0332 346.277L55.9514 342.241L64.0225 324.072L127.595 352.328L119.524 370.497L83.1968 354.35L79.1615 363.435L97.3251 371.508L93.2898 380.593L75.1262 372.52L71.0909 381.604L107.418 397.75L99.3475 415.919Z" fill="white"/>
<path d="M519.819 63.6441L511.079 64.3171L506.682 7.18311L524.163 5.8367L528.65 64.1383L528.739 65.3061L529.907 65.2162L559.637 62.9268L560.804 62.8369L560.715 61.6691L556.228 3.36735L573.709 2.02094L578.105 59.1547L569.365 59.8282L568.198 59.9182L568.287 61.0856L568.958 69.8298L521.752 73.4657L521.077 64.7217L520.987 63.5542L519.819 63.6441ZM438.862 32.2646L447.397 30.2608L449.4 38.7984L449.667 39.9388L450.808 39.6711L459.343 37.6673L461.346 46.2048L461.613 47.3453L462.754 47.0775L472.429 44.8061L473.569 44.5384L473.301 43.3983L466.757 15.5046L483.826 11.497L499.187 76.9621L482.117 80.9697L477.843 62.7542L477.575 61.6137L476.435 61.8815L467.9 63.8852L465.897 55.3477L465.63 54.2072L464.489 54.475L455.954 56.4787L453.951 47.9412L453.684 46.8007L452.543 47.0685L442.868 49.34L441.728 49.6077L441.996 50.7478L450.811 88.3196L433.742 92.3268L418.381 26.8619L435.451 22.8544L437.454 31.3919L437.722 32.5323L438.862 32.2646ZM362.649 80.4655L398.416 65.9998L401.264 73.0442L365.496 87.5101L364.41 87.9491L364.849 89.0348L372.299 107.467L372.738 108.553L373.824 108.114L418.805 89.9221L421.652 96.9666L359.33 122.172L334.132 59.8304L396.454 34.6252L399.302 41.6695L354.321 59.8618L353.235 60.3009L353.674 61.3866L361.124 79.8186L361.563 80.9047L362.649 80.4655ZM255.922 105.312L270.979 96.3255L275.471 103.857L276.071 104.863L277.077 104.262L284.605 99.7695L289.097 107.3L289.697 108.306L290.703 107.706L299.238 102.613L300.243 102.013L299.643 101.007L295.152 93.4758L302.681 88.9827L303.686 88.3826L303.086 87.3769L298.595 79.8453L313.652 70.8598L348.093 128.607L333.036 137.593L313.269 104.451L312.669 103.445L311.663 104.045L303.129 109.138L302.123 109.738L302.723 110.744L312.306 126.813L305.784 130.705L296.2 114.637L295.6 113.631L294.594 114.232L286.06 119.325L285.054 119.925L285.654 120.931L305.421 154.073L290.363 163.059L255.922 105.312Z" stroke="#DFDC01" stroke-width="2.34252"/>
<path d="M830.873 129.013L835.966 120.477L827.429 115.383L857.979 64.1607L875.047 74.3472L844.498 125.569L870.103 140.849L900.652 89.6264L917.721 99.8129L887.171 151.036L878.635 145.942L873.546 154.479L830.873 129.013Z" fill="#DFDC01"/>
<path d="M748.179 93.8874L774.256 29.3745L792.681 36.8269L788.959 46.0431L798.172 49.7695L794.445 58.9857L803.657 62.7116L799.936 71.9278L809.148 75.6542L820.323 48.0057L838.748 55.4582L812.676 119.971L794.246 112.519L801.7 94.0862L792.482 90.3603L796.209 81.1441L786.996 77.4177L790.723 68.2015L781.506 64.4756L766.609 101.34L748.179 93.8874Z" fill="#DFDC01"/>
<path d="M670.301 75.5633L686.196 7.81754L753.924 23.7178L751.653 33.3958L703.275 22.0385L698.733 41.3943L737.436 50.4803L735.166 60.1583L696.462 51.0723L691.926 70.4283L740.299 81.7853L738.028 91.4633L670.301 75.5633Z" fill="#DFDC01"/>
<path d="M590.539 69.3813L595.876 0L615.697 1.5263L614.932 11.4379L624.84 12.2011L624.08 22.1127L633.988 22.8758L634.748 12.9642L644.656 13.7273L645.421 3.81577L665.238 5.34206L659.896 74.723L640.08 73.1971L643.131 33.5506L633.223 32.7874L631.697 52.6104L621.789 51.8475L623.314 32.0243L613.406 31.2611L610.355 70.9077L590.539 69.3813Z" fill="#DFDC01"/>
<path d="M1063.13 347.815L1059.57 339.801L1111.92 316.533L1119.04 332.562L1065.62 356.305L1064.55 356.781L1065.02 357.851L1077.13 385.104L1077.6 386.175L1078.67 385.699L1132.09 361.956L1139.21 377.984L1086.86 401.252L1083.3 393.238L1082.83 392.167L1081.76 392.643L1073.74 396.204L1054.52 352.922L1062.53 349.361L1063.61 348.885L1063.13 347.815ZM1007.3 276.275L1063.83 239.886L1073.32 254.635L1065.94 259.38L1064.96 260.014L1065.59 260.999L1070.34 268.374L1062.96 273.12L1061.98 273.754L1062.61 274.739L1067.36 282.113L1059.99 286.859L1059 287.492L1059.63 288.477L1065.01 296.837L1065.64 297.822L1066.63 297.188L1090.72 281.683L1100.2 296.432L1043.67 332.822L1034.19 318.073L1049.91 307.947L1050.9 307.314L1050.27 306.329L1045.52 298.954L1052.9 294.209L1053.88 293.575L1053.25 292.59L1048.5 285.215L1055.87 280.469L1056.86 279.835L1056.22 278.851L1050.85 270.491L1050.21 269.506L1049.23 270.14L1016.79 291.025L1007.3 276.275ZM954.276 216.124L1004.57 171.507L1049.17 221.816L1043.49 226.857L1011.3 190.547L1010.52 189.67L1009.64 190.447L994.773 203.64L993.897 204.417L994.673 205.293L1020.27 234.166L1014.59 239.208L988.993 210.335L988.215 209.458L987.339 210.235L972.467 223.428L971.591 224.205L972.368 225.081L1004.56 261.392L998.879 266.433L954.276 216.124ZM943.617 132.597L950.367 138.19L944.774 144.945L944.027 145.847L944.929 146.594L952.586 152.934L953.488 153.681L954.235 152.779L959.824 146.024L966.579 151.617L967.481 152.365L968.228 151.462L973.816 144.708L987.322 155.894L944.452 207.687L930.947 196.501L955.552 166.776L956.299 165.874L955.397 165.127L947.74 158.786L946.837 158.039L946.09 158.942L934.162 173.353L928.313 168.507L940.243 154.096L940.989 153.193L940.087 152.447L932.43 146.106L931.528 145.359L930.781 146.262L906.176 175.986L892.671 164.801L935.545 113.008L949.051 124.194L943.462 130.948L942.715 131.85L943.617 132.597Z" stroke="#2D2650" stroke-width="2.34252"/>
<path d="M1106.58 664.269L1115.17 665.984L1116.32 666.213L1116.55 665.064L1118.26 656.466L1174.45 667.659L1171.02 684.86L1113.69 673.438L1112.54 673.21L1112.31 674.358L1106.49 703.605L1106.26 704.753L1107.41 704.982L1164.74 716.404L1161.31 733.606L1105.13 722.413L1106.85 713.809L1107.07 712.66L1105.93 712.432L1097.33 710.722L1106.58 664.269ZM1168.62 595.567L1168.24 604.327L1159.48 603.95L1158.31 603.9L1158.26 605.07L1157.89 613.831L1149.13 613.454L1147.96 613.403L1147.91 614.574L1147.48 624.505L1147.43 625.675L1148.6 625.725L1177.22 626.957L1176.46 644.479L1109.3 641.592L1110.06 624.07L1128.74 624.875L1129.91 624.925L1129.96 623.755L1130.34 614.994L1139.1 615.366L1140.27 615.416L1140.32 614.247L1140.7 605.486L1149.45 605.863L1150.62 605.913L1150.67 604.743L1151.1 594.812L1151.15 593.642L1149.98 593.592L1111.43 591.937L1112.19 574.41L1179.35 577.297L1178.6 594.824L1169.84 594.447L1168.67 594.396L1168.62 595.567ZM1110.99 561.518L1103.56 494.684L1170.37 487.251L1177.8 554.083L1170.25 554.922L1164.89 506.685L1164.76 505.521L1163.59 505.65L1143.84 507.852L1142.67 507.982L1142.8 509.146L1147.07 547.502L1139.52 548.341L1135.25 509.985L1135.12 508.821L1133.96 508.951L1114.21 511.148L1113.04 511.277L1113.17 512.441L1118.53 560.679L1110.99 561.518ZM1145.3 428.765L1136.84 431.057L1135.71 431.363L1136.02 432.494L1138.61 442.089L1138.92 443.22L1140.05 442.913L1148.51 440.621L1150.8 449.086L1151.11 450.217L1152.24 449.91L1160.7 447.618L1165.28 464.548L1100.4 482.123L1095.81 465.194L1133.05 455.107L1134.19 454.801L1133.88 453.67L1131.28 444.075L1130.97 442.944L1129.84 443.25L1111.79 448.141L1109.81 440.807L1127.86 435.916L1128.99 435.61L1128.69 434.479L1126.09 424.884L1125.78 423.753L1124.65 424.059L1087.41 434.147L1082.83 417.217L1147.72 399.642L1152.3 416.571L1143.84 418.863L1142.71 419.17L1143.01 420.3L1145.3 428.765Z" stroke="#DFDC01" stroke-width="2.34252"/>
<path d="M969.621 946.994L976.464 954.201L983.674 947.357L1024.73 990.615L1010.31 1004.3L969.259 961.045L947.634 981.578L988.687 1024.84L974.272 1038.52L933.219 995.267L940.429 988.423L933.586 981.216L969.621 946.994Z" fill="white"/>
<path d="M1025.77 876.836L1080.82 919.373L1068.67 935.11L1060.81 929.031L1054.73 936.899L1046.86 930.825L1040.79 938.688L1032.93 932.614L1026.85 940.483L1050.45 958.709L1038.3 974.446L983.241 931.909L995.39 916.172L1011.12 928.33L1017.19 920.462L1025.06 926.535L1031.14 918.672L1039 924.746L1045.08 916.878L1013.62 892.572L1025.77 876.836Z" fill="white"/>
<path d="M1064.43 806.778L1125.35 840.383L1091.76 901.321L1083.05 896.519L1107.05 852.993L1089.65 843.39L1070.45 878.213L1061.75 873.412L1080.95 838.589L1063.54 828.991L1039.54 872.512L1030.84 867.71L1064.43 806.778Z" fill="white"/>
<path d="M1091.93 731.624L1157.27 755.507L1150.45 774.181L1141.12 770.766L1137.7 780.106L1128.37 776.691L1124.96 786.031L1134.29 789.441L1130.88 798.78L1140.22 802.19L1133.39 820.864L1068.06 796.986L1074.87 778.312L1112.22 791.956L1115.62 782.621L1096.96 775.797L1100.37 766.457L1119.03 773.282L1122.45 763.947L1085.11 750.298L1091.93 731.624Z" fill="white"/>
<path d="M660.348 1119.06L669.088 1118.39L673.49 1175.52L656.004 1176.87L651.518 1118.57L651.428 1117.4L650.26 1117.49L620.536 1119.78L619.368 1119.87L619.458 1121.04L623.944 1179.34L606.463 1180.69L602.067 1123.55L610.807 1122.88L611.975 1122.79L611.885 1121.62L611.21 1112.88L658.419 1109.24L659.09 1117.98L659.18 1119.15L660.348 1119.06ZM741.308 1150.44L732.774 1152.44L730.771 1143.9L730.503 1142.76L729.363 1143.03L720.828 1145.04L718.825 1136.5L718.558 1135.36L717.417 1135.63L707.743 1137.9L706.602 1138.16L706.87 1139.3L713.415 1167.2L696.346 1171.21L680.986 1105.74L698.054 1101.74L702.328 1119.95L702.596 1121.09L703.736 1120.82L712.271 1118.82L714.274 1127.36L714.541 1128.5L715.682 1128.23L724.216 1126.22L726.219 1134.76L726.487 1135.9L727.627 1135.63L737.302 1133.36L738.442 1133.1L738.174 1131.96L729.359 1094.39L746.427 1090.38L761.788 1155.84L744.719 1159.85L742.716 1151.31L742.449 1150.17L741.308 1150.44ZM846.039 1122.87L783.718 1148.08L780.869 1141.04L825.851 1122.84L826.936 1122.4L826.498 1121.32L819.049 1102.89L818.61 1101.8L817.524 1102.24L781.755 1116.71L778.906 1109.66L814.676 1095.2L815.761 1094.76L815.322 1093.67L807.874 1075.24L807.435 1074.15L806.349 1074.59L761.367 1092.78L758.519 1085.74L820.839 1060.53L846.039 1122.87ZM903.093 1078.44L895.567 1082.93L891.074 1075.4L890.474 1074.4L889.468 1075L880.931 1080.09L879.926 1080.69L880.526 1081.7L885.019 1089.23L877.493 1093.72L876.488 1094.32L877.087 1095.33L881.576 1102.86L866.519 1111.84L832.076 1054.1L847.133 1045.11L866.901 1078.25L867.501 1079.26L868.506 1078.66L877.043 1073.57L878.049 1072.97L877.449 1071.96L867.863 1055.89L874.388 1052L883.969 1068.07L884.569 1069.07L885.575 1068.47L894.112 1063.38L895.118 1062.78L894.518 1061.77L874.75 1028.63L889.807 1019.65L924.249 1077.4L909.192 1086.38L904.699 1078.85L904.099 1077.84L903.093 1078.44Z" stroke="#2D2650" stroke-width="2.34252"/>
<path d="M349.298 1053.69L344.207 1062.23L352.741 1067.32L322.191 1118.54L305.122 1108.36L335.672 1057.13L310.068 1041.85L279.518 1093.08L262.449 1082.89L292.999 1031.67L301.534 1036.77L306.625 1028.23L349.298 1053.69Z" fill="#DFDC01"/>
<path d="M431.991 1088.82L405.915 1153.33L387.488 1145.88L391.213 1136.66L382 1132.94L385.725 1123.72L376.511 1120L380.236 1110.78L371.023 1107.05L359.847 1134.7L341.421 1127.25L367.497 1062.74L385.924 1070.19L378.473 1088.62L387.687 1092.35L383.961 1101.56L393.175 1105.29L389.45 1114.5L398.663 1118.23L413.564 1081.37L431.991 1088.82Z" fill="#DFDC01"/>
<path d="M509.868 1107.14L493.974 1174.89L426.249 1158.99L428.52 1149.31L476.895 1160.66L481.436 1141.31L442.736 1132.22L445.007 1122.55L483.707 1131.63L488.249 1112.28L439.874 1100.92L442.144 1091.24L509.868 1107.14Z" fill="#DFDC01"/>
<path d="M589.634 1113.33L584.292 1182.7L564.476 1181.18L565.241 1171.27L555.333 1170.51L556.093 1160.59L546.185 1159.83L545.42 1169.74L535.512 1168.98L534.751 1178.89L514.935 1177.36L520.272 1107.98L540.093 1109.51L537.037 1149.15L546.95 1149.92L548.476 1130.1L558.384 1130.86L556.858 1150.68L566.766 1151.44L569.817 1111.8L589.634 1113.33Z" fill="#DFDC01"/>
</g>
<defs>
<clipPath id="clip0_2154_80">
<rect width="1180.63" height="1182.97" fill="white"/>
</clipPath>
</defs>
</svg>
