<svg width="1181" height="1183" viewBox="0 0 1181 1183" fill="none" xmlns="http://www.w3.org/2000/svg">
<g clip-path="url(#clip0_1224_5063)">
<g clip-path="url(#clip1_1224_5063)">
<g clip-path="url(#clip2_1224_5063)">
<path d="M417.844 964.703L420.737 958.481L454.355 974.11L451.462 980.333L451.075 981.164L451.907 981.551L458.133 984.446L439.235 1025.11L426.786 1019.32L446.07 977.827L446.457 976.996L445.625 976.609L424.457 966.767L423.625 966.38L423.239 967.212L403.955 1008.71L391.506 1002.92L410.404 962.256L416.627 965.148L417.458 965.534L417.844 964.703ZM500.088 1020.2L508.469 991.187L521.658 995.002L507.051 1045.56L493.862 1041.74L495.767 1035.15L496.021 1034.27L495.141 1034.01L488.548 1032.11L490.452 1025.51L490.707 1024.63L489.826 1024.38L483.233 1022.47L485.138 1015.88L485.392 1015L484.512 1014.74L477.038 1012.58L476.157 1012.33L475.902 1013.21L469.677 1034.75L456.491 1030.94L471.098 980.38L484.284 984.193L480.22 998.261L479.966 999.141L480.847 999.396L487.44 1001.3L485.535 1007.9L485.281 1008.78L486.161 1009.03L492.754 1010.94L490.85 1017.53L490.595 1018.41L491.476 1018.67L498.952 1020.83L499.833 1021.08L500.088 1020.2ZM565.64 1030.37L535.679 1026.51L536.437 1020.62L566.395 1024.47L567.304 1024.58L567.421 1023.68L569.401 1008.24L569.517 1007.33L568.608 1007.22L530.932 1002.37L531.688 996.474L583.889 1003.19L577.194 1055.38L524.993 1048.67L525.751 1042.78L563.426 1047.62L564.335 1047.74L564.452 1046.83L566.432 1031.39L566.549 1030.48L565.64 1030.37ZM618.147 1032.7L617.764 1018.06L623.709 1017.9L624.092 1032.54L624.116 1033.46L625.032 1033.44L632.81 1033.23L633.726 1033.21L633.702 1032.29L632.913 1002.1L646.635 1001.75L648.009 1054.36L634.287 1054.71L634.109 1047.85L634.085 1046.93L633.169 1046.96L626.307 1047.13L626.127 1040.27L626.103 1039.36L625.187 1039.38L617.409 1039.58L616.492 1039.6L616.516 1040.52L616.697 1047.38L609.836 1047.56L608.919 1047.58L608.943 1048.5L609.121 1055.36L595.399 1055.71L594.025 1003.1L607.747 1002.75L608.536 1032.95L608.56 1033.86L609.477 1033.84L617.254 1033.64L618.171 1033.61L618.147 1032.7Z" stroke="#DFDC01" stroke-width="1.83364"/>
<path d="M264.648 817.631L257.9 821.502L261.774 828.251L221.288 851.478L213.542 837.981L254.027 814.753L242.407 794.507L201.922 817.735L194.175 804.237L234.66 781.009L238.534 787.758L245.282 783.887L264.648 817.631Z" fill="#2D2650"/>
<path d="M307.626 873.316L265.102 907.329L255.379 895.174L261.454 890.315L256.595 884.241L262.67 879.382L257.809 873.305L263.884 868.446L259.023 862.369L240.798 876.945L231.077 864.793L273.603 830.781L283.325 842.936L271.173 852.651L276.034 858.728L269.959 863.587L274.82 869.664L268.745 874.523L273.607 880.6L297.906 861.165L307.626 873.316Z" fill="#2D2650"/>
<path d="M353.764 915.694L316.946 955.814L276.813 918.986L282.075 913.257L310.739 939.56L321.26 928.099L298.325 907.053L303.584 901.321L326.519 922.366L337.037 910.902L308.369 884.596L313.628 878.864L353.764 915.694Z" fill="#2D2650"/>
<path d="M405.84 950.51L375.602 995.797L362.66 987.153L366.979 980.683L360.509 976.363L364.828 969.892L358.356 965.569L354.037 972.039L347.567 967.719L343.245 974.187L330.303 965.543L360.542 920.256L373.483 928.9L356.205 954.778L362.677 959.102L371.315 946.161L377.787 950.484L369.147 963.422L375.619 967.745L392.898 941.866L405.84 950.51Z" fill="#2D2650"/>
<path d="M198.639 580.074L190.893 579.344L190.165 587.09L143.689 582.711L145.144 567.219L191.621 571.598L193.803 548.36L147.326 543.981L148.781 528.489L195.259 532.869L194.531 540.615L202.277 541.344L198.639 580.074Z" fill="white"/>
<path d="M201.64 650.344L147.277 653.596L146.343 638.063L154.109 637.599L153.642 629.832L161.409 629.368L160.942 621.601L168.708 621.137L168.241 613.371L144.943 614.764L144.009 599.231L198.372 595.98L199.306 611.513L183.774 612.441L184.24 620.208L176.474 620.672L176.941 628.439L169.175 628.903L169.641 636.67L200.707 634.812L201.64 650.344Z" fill="white"/>
<path d="M214.895 711.564L161.672 723.1L150.121 669.874L157.724 668.226L165.975 706.244L181.182 702.948L174.581 672.533L182.184 670.886L188.785 701.301L203.991 698.004L195.74 659.986L203.344 658.338L214.895 711.564Z" fill="white"/>
<path d="M237.365 770.035L186.539 789.583L180.949 775.059L188.21 772.267L185.415 765.005L192.676 762.212L189.882 754.951L182.621 757.743L179.826 750.481L172.565 753.274L166.976 738.75L217.803 719.202L223.392 733.726L194.348 744.896L197.143 752.158L211.665 746.573L214.459 753.835L199.937 759.42L202.732 766.682L231.776 755.511L237.365 770.035Z" fill="white"/>
<path d="M305.734 318.547L281.618 346.688L276.405 342.222L275.709 341.625L275.112 342.322L270.647 347.532L236.59 318.342L245.52 307.921L280.273 337.708L280.969 338.304L281.566 337.608L296.754 319.886L297.351 319.19L296.655 318.593L261.901 288.806L270.832 278.386L304.889 307.576L300.424 312.786L299.827 313.482L300.523 314.079L305.734 318.547ZM212.934 369.763L216.549 363.93L222.383 367.546L223.163 368.03L223.646 367.25L227.26 361.417L233.095 365.034L233.874 365.517L234.357 364.738L238.455 358.125L238.938 357.346L238.159 356.863L219.097 345.047L226.327 333.38L271.064 361.113L263.834 372.78L251.386 365.063L250.606 364.58L250.123 365.359L246.509 371.192L240.674 367.575L239.895 367.092L239.412 367.872L235.797 373.705L229.963 370.088L229.184 369.605L228.701 370.384L224.603 376.996L224.12 377.776L224.899 378.259L250.574 394.175L243.344 405.841L198.608 378.108L205.837 366.442L211.672 370.059L212.451 370.542L212.934 369.763ZM170.224 442.988L190.768 394.542L196.243 396.865L181.416 431.831L181.058 432.675L181.902 433.033L196.227 439.112L197.071 439.47L197.429 438.626L209.22 410.822L214.695 413.145L202.904 440.949L202.546 441.793L203.39 442.151L217.716 448.23L218.56 448.588L218.918 447.744L233.746 412.778L239.221 415.101L218.677 463.547L170.224 442.988ZM152.109 511.451L155.469 498.143L162.124 499.825L163.013 500.05L163.237 499.161L164.917 492.507L171.571 494.189L172.461 494.414L172.685 493.525L174.59 485.982L174.814 485.093L173.926 484.869L167.271 483.186L168.951 476.532L169.176 475.643L168.287 475.419L161.632 473.736L164.993 460.429L216.019 473.328L212.659 486.636L183.374 479.233L182.485 479.008L182.26 479.897L180.356 487.44L180.131 488.329L181.02 488.553L195.218 492.143L193.762 497.908L179.564 494.319L178.675 494.094L178.451 494.983L176.546 502.526L176.322 503.415L177.21 503.639L206.495 511.043L203.135 524.351L152.109 511.451Z" stroke="#DFDC01" stroke-width="1.83364"/>
<path d="M483.461 206.336L481.555 198.792L474.011 200.698L462.568 155.437L477.654 151.628L489.096 196.889L511.726 191.173L500.283 145.913L515.369 142.104L526.812 187.364L519.267 189.27L521.176 196.812L483.461 206.336Z" fill="#DFDC01"/>
<path d="M418.248 232.665L396.974 182.524L411.297 176.45L414.338 183.611L421.5 180.575L424.538 187.739L431.7 184.702L434.741 191.863L441.902 188.827L432.785 167.338L447.108 161.265L468.385 211.403L454.059 217.479L447.982 203.151L440.818 206.191L437.779 199.027L430.618 202.064L427.579 194.9L420.415 197.939L432.574 226.589L418.248 232.665Z" fill="#DFDC01"/>
<path d="M365 265.628L336.302 219.333L382.589 190.647L386.689 197.26L353.626 217.751L361.825 230.978L388.277 214.585L392.376 221.199L365.925 237.592L374.128 250.816L407.188 230.328L411.288 236.942L365 265.628Z" fill="#DFDC01"/>
<path d="M317.431 306.354L281.982 264.998L293.798 254.872L298.861 260.781L304.767 255.719L309.833 261.626L315.739 256.565L310.674 250.658L316.58 245.596L311.518 239.686L323.331 229.563L358.777 270.922L346.964 281.045L326.708 257.412L320.802 262.474L330.929 274.29L325.023 279.352L314.895 267.536L308.988 272.598L329.244 296.231L317.431 306.354Z" fill="#DFDC01"/>
<path d="M733.121 198.888L726.712 196.425L742.811 154.569L755.623 159.5L739.198 202.21L738.869 203.066L739.724 203.395L761.508 211.78L762.364 212.109L762.694 211.253L779.119 168.544L791.931 173.475L775.834 215.329L769.429 212.864L768.573 212.534L768.244 213.39L765.779 219.796L731.183 206.48L733.647 200.073L733.977 199.217L733.121 198.888ZM707.036 168.929L711.787 147.015L725.201 149.928L714.053 201.359L700.639 198.446L703.739 184.136L703.933 183.241L703.038 183.046L696.331 181.59L697.785 174.882L697.979 173.986L697.084 173.792L690.376 172.335L691.828 165.63L692.022 164.734L691.126 164.54L683.524 162.889L682.627 162.694L682.433 163.59L676.037 193.106L662.62 190.195L673.768 138.764L687.184 141.675L685.73 148.383L685.536 149.279L686.431 149.473L693.139 150.93L691.684 157.638L691.49 158.534L692.386 158.728L699.096 160.182L697.641 166.89L697.447 167.785L698.343 167.98L705.946 169.631L706.842 169.826L707.036 168.929ZM646.495 159.706L646.141 165.641L615.991 163.828L615.076 163.773L615.021 164.688L614.091 180.222L614.036 181.137L614.951 181.192L652.868 183.471L652.514 189.406L599.98 186.248L603.122 133.716L655.655 136.874L655.301 142.809L617.385 140.529L616.469 140.474L616.415 141.39L615.485 156.923L615.43 157.838L616.345 157.893L646.495 159.706ZM564.896 151.209L564.251 144.377L571.085 143.734L571.998 143.648L571.912 142.735L571.267 135.904L584.933 134.62L589.873 187.015L576.206 188.299L573.372 158.228L573.286 157.315L572.373 157.401L564.626 158.13L563.713 158.215L563.799 159.128L565.173 173.707L559.254 174.262L557.88 159.683L557.794 158.77L556.881 158.856L549.134 159.585L548.221 159.671L548.307 160.584L551.141 190.655L537.474 191.939L532.538 139.541L546.205 138.257L546.85 145.089L546.936 146.001L547.848 145.916L554.68 145.275L555.323 152.11L555.409 153.023L556.322 152.937L564.069 152.208L564.982 152.122L564.896 151.209Z" stroke="#2D2650" stroke-width="1.83364"/>
<path d="M938.285 344.917L934.475 339.209L971.767 314.307L979.391 325.726L941.336 351.137L940.574 351.646L941.083 352.408L954.047 371.819L954.556 372.582L955.319 372.073L993.374 346.662L1001 358.078L963.708 382.979L959.894 377.269L959.385 376.506L958.623 377.016L952.916 380.829L932.326 349.997L938.032 346.189L938.794 345.68L938.285 344.917ZM928.638 277.631L933.281 282.686L928.222 287.327L927.546 287.948L928.167 288.623L932.809 293.678L927.751 298.319L927.075 298.939L927.695 299.615L932.958 305.346L933.578 306.02L934.253 305.401L950.773 290.245L960.054 300.361L921.283 335.936L912.002 325.821L922.79 315.924L923.465 315.304L922.845 314.628L918.205 309.57L923.259 304.929L923.934 304.309L923.314 303.634L918.674 298.576L923.73 293.937L924.405 293.317L923.786 292.642L918.525 286.908L917.905 286.233L917.23 286.853L894.979 307.272L885.695 297.154L924.466 261.578L933.752 271.694L928.693 276.336L928.018 276.956L928.638 277.631ZM877.895 290.682L836.789 257.804L869.654 216.711L910.759 249.587L907.045 254.231L877.378 230.499L876.662 229.926L876.089 230.643L866.373 242.797L865.8 243.513L866.516 244.085L890.106 262.956L886.394 267.597L862.802 248.729L862.086 248.156L861.513 248.872L851.797 261.021L851.224 261.737L851.94 262.309L881.607 286.041L877.895 290.682ZM823.41 198.21L819.994 204.164L819.537 204.959L820.332 205.416L827.082 209.288L827.877 209.745L828.333 208.949L831.747 202.998L837.701 206.414L838.496 206.871L838.953 206.076L842.369 200.122L854.275 206.957L828.089 252.599L816.181 245.766L831.21 219.571L831.666 218.776L830.871 218.319L824.122 214.447L823.326 213.99L822.87 214.786L815.584 227.485L810.427 224.523L817.714 211.823L818.17 211.028L817.375 210.571L810.625 206.699L809.83 206.242L809.374 207.038L794.345 233.233L782.437 226.4L808.625 180.756L820.531 187.591L817.117 193.543L816.661 194.338L817.456 194.794L823.41 198.21Z" stroke="#DFDC01" stroke-width="1.83364"/>
<path d="M1013.01 582.289L1020.78 582.491L1020.99 574.712L1067.65 575.932L1067.25 591.487L1020.59 590.267L1019.98 613.601L1066.65 614.821L1066.24 630.377L1019.58 629.157L1019.78 621.378L1012 621.176L1013.01 582.289Z" fill="white"/>
<path d="M1005.25 512.381L1059.27 505.452L1061.26 520.886L1053.54 521.875L1054.53 529.594L1046.81 530.586L1047.8 538.299L1040.09 539.291L1041.08 547.01L1064.23 544.037L1066.21 559.471L1012.2 566.401L1010.21 550.966L1025.65 548.988L1024.65 541.272L1032.37 540.28L1031.38 532.564L1039.09 531.575L1038.1 523.856L1007.24 527.815L1005.25 512.381Z" fill="white"/>
<path d="M987.877 452.201L1040.2 437.082L1055.33 489.406L1047.85 491.567L1037.05 454.192L1022.1 458.511L1030.74 488.412L1023.27 490.571L1014.62 460.669L999.677 464.991L1010.49 502.361L1003.01 504.522L987.877 452.201Z" fill="white"/>
<path d="M961.498 395.386L1010.88 372.438L1017.44 386.551L1010.39 389.826L1013.67 396.885L1006.61 400.16L1009.89 407.219L1016.95 403.938L1020.23 410.994L1027.28 407.716L1033.84 421.828L984.463 444.776L977.9 430.666L1006.12 417.55L1002.84 410.496L988.731 417.052L985.448 409.996L999.558 403.44L996.281 396.384L968.061 409.495L961.498 395.386Z" fill="white"/>
<path d="M937.065 848.71L941.529 843.498L975.59 872.687L966.657 883.11L931.905 853.325L931.209 852.728L930.612 853.424L915.425 871.142L914.829 871.838L915.525 872.435L950.279 902.223L941.349 912.643L907.291 883.452L911.757 878.243L912.354 877.547L911.657 876.95L906.445 872.485L930.562 844.341L935.772 848.809L936.468 849.406L937.065 848.71ZM1013.57 812.923L1006.34 824.588L1000.51 820.969L999.726 820.486L999.243 821.265L995.628 827.098L989.794 823.482L989.015 822.998L988.532 823.778L984.917 829.611L979.083 825.994L978.304 825.511L977.821 826.291L973.723 832.903L973.241 833.682L974.02 834.165L993.083 845.983L985.854 857.649L941.116 829.915L948.346 818.25L960.793 825.966L961.572 826.449L962.055 825.669L965.67 819.837L971.504 823.453L972.283 823.936L972.766 823.157L976.381 817.324L982.215 820.941L982.994 821.424L983.477 820.644L987.575 814.032L988.058 813.253L987.279 812.77L961.604 796.855L968.834 785.189L1013.57 812.923ZM1014.75 752.402L1002.96 780.208L997.485 777.886L1009.28 750.08L1009.63 749.236L1008.79 748.878L994.465 742.8L993.621 742.442L993.263 743.286L978.434 778.251L972.959 775.929L993.501 727.483L1041.95 748.04L1021.41 796.487L1015.94 794.165L1030.76 759.197L1031.12 758.353L1030.28 757.995L1015.95 751.916L1015.11 751.558L1014.75 752.402ZM1048.94 691.868L1047.26 698.521L1040.61 696.838L1039.72 696.614L1039.49 697.503L1037.59 705.048L1037.36 705.936L1038.25 706.161L1044.91 707.844L1043.23 714.494L1043 715.383L1043.89 715.608L1050.55 717.293L1047.19 730.6L996.158 717.7L999.519 704.394L1028.8 711.796L1029.69 712.02L1029.92 711.132L1031.83 703.59L1032.05 702.701L1031.16 702.476L1016.96 698.886L1018.42 693.121L1032.61 696.711L1033.5 696.936L1033.73 696.047L1035.63 688.502L1035.86 687.613L1034.97 687.389L1005.68 679.986L1009.04 666.68L1060.07 679.579L1056.71 692.886L1050.05 691.203L1049.16 690.979L1048.94 691.868Z" stroke="#2D2650" stroke-width="1.83364"/>
<path d="M728.717 984.692L730.625 992.237L738.169 990.333L749.61 1035.59L734.525 1039.4L723.081 994.141L700.453 999.856L711.897 1045.12L696.809 1048.93L685.368 1003.67L692.912 1001.76L691.003 994.218L728.717 984.692Z" fill="#DFDC01"/>
<path d="M793.929 958.365L815.206 1008.51L800.88 1014.58L797.842 1007.42L790.681 1010.46L787.64 1003.29L780.48 1006.33L777.438 999.165L770.278 1002.2L779.394 1023.69L765.071 1029.77L743.797 979.627L758.12 973.551L764.197 987.876L771.36 984.84L774.399 992.003L781.562 988.966L784.601 996.129L791.764 993.093L779.606 964.44L793.929 958.365Z" fill="#DFDC01"/>
<path d="M847.177 925.403L875.878 971.698L829.592 1000.38L825.492 993.77L858.551 973.278L850.352 960.051L823.903 976.442L819.803 969.829L846.252 953.438L838.053 940.211L804.991 960.7L800.892 954.087L847.177 925.403Z" fill="#DFDC01"/>
<path d="M894.75 884.675L930.194 926.032L918.381 936.156L913.319 930.247L907.414 935.31L902.349 929.403L896.441 934.464L901.503 940.373L895.598 945.436L900.663 951.343L888.85 961.467L853.401 920.11L865.217 909.983L885.468 933.618L891.379 928.555L881.252 916.739L887.157 911.675L897.284 923.491L903.192 918.431L882.937 894.799L894.75 884.675Z" fill="#DFDC01"/>
</g>
</g>
<g clip-path="url(#clip3_1224_5063)">
<g clip-path="url(#clip4_1224_5063)">
<path d="M102.081 800.797L105.09 809.036L51.2835 828.7L45.2659 812.227L100.172 792.16L101.272 791.758L100.87 790.658L90.6387 762.645L90.2368 761.544L89.1365 761.947L34.2303 782.013L28.2129 765.539L82.019 745.875L85.0277 754.109L85.4296 755.209L86.5297 754.807L94.7637 751.799L111.013 796.287L102.779 799.295L101.679 799.696L102.081 800.797ZM97.6462 873.74L93.4122 866.062L101.09 861.826L102.115 861.26L101.549 860.235L96.7498 851.531L96.1842 850.506L95.1585 851.071L70.0772 864.905L61.6097 849.55L120.474 817.076L128.942 832.431L112.563 841.469L111.537 842.034L112.103 843.06L116.337 850.738L108.66 854.973L107.635 855.539L108.2 856.564L112.434 864.242L104.757 868.478L103.732 869.044L104.297 870.069L109.097 878.777L109.662 879.804L110.688 879.237L144.471 860.598L152.939 875.958L94.0744 908.431L85.6063 893.071L93.2833 888.835L94.3085 888.27L93.7431 887.244L89.5095 879.566L97.1864 875.331L98.2117 874.765L97.6462 873.74ZM201.763 939.566L148.562 980.671L107.469 927.452L113.48 922.81L143.139 961.22L143.855 962.147L144.782 961.431L160.512 949.278L161.439 948.562L160.723 947.635L137.139 917.089L143.15 912.447L166.734 942.988L167.45 943.915L168.377 943.199L184.107 931.046L185.033 930.33L184.318 929.403L154.658 890.994L160.67 886.347L201.763 939.566ZM259.745 994.947L213.461 1043.71L200.745 1031.64L206.781 1025.28L207.587 1024.43L206.738 1023.62L200.38 1017.59L206.417 1011.22L207.222 1010.37L206.373 1009.57L199.166 1002.72L198.316 1001.92L197.51 1002.77L191.474 1009.13L185.116 1003.09L184.267 1002.28L183.46 1003.13L177.424 1009.49L164.708 997.416L210.992 948.65L223.708 960.725L197.145 988.715L196.339 989.564L197.188 990.37L204.395 997.214L205.245 998.021L206.051 997.171L218.929 983.602L224.438 988.833L211.56 1002.4L210.754 1003.25L211.603 1004.06L218.81 1010.9L219.66 1011.71L220.466 1010.86L247.029 982.871L259.745 994.947Z" stroke="#DFDC01" stroke-width="2.34252"/>
<path d="M80.997 483.56L71.4049 480.961L68.8071 490.557L11.2522 474.967L16.4472 455.777L74.0022 471.366L81.7945 442.58L24.2398 426.99L29.4348 407.8L86.9896 423.389L84.3923 432.984L93.9849 435.583L80.997 483.56Z" fill="#2D2650"/>
<path d="M69.5179 572.688L0.378418 564.998L2.57529 545.236L12.4523 546.334L13.5508 536.458L23.4278 537.556L24.5263 527.675L34.4033 528.773L35.5018 518.892L5.87058 515.597L8.06747 495.838L77.2069 503.528L75.0101 523.291L55.256 521.089L54.1573 530.97L44.2804 529.872L43.182 539.753L33.3049 538.655L32.2065 548.536L71.7147 552.93L69.5179 572.688Z" fill="#2D2650"/>
<path d="M72.9145 652.648L3.41298 655.63L0.42722 586.108L10.356 585.686L12.4887 635.341L32.3463 634.491L30.6402 594.762L40.569 594.334L42.2751 634.063L62.1328 633.208L60.0001 583.548L69.9286 583.121L72.9145 652.648Z" fill="#2D2650"/>
<path d="M88.5062 731.141L20.2809 744.735L16.398 725.236L26.1444 723.293L24.203 713.546L33.9494 711.602L32.008 701.85L22.2615 703.793L20.3201 694.046L10.5736 695.985L6.69071 676.486L74.916 662.892L78.7988 682.391L39.813 690.16L41.7544 699.912L61.2473 696.025L63.1887 705.777L43.6959 709.659L45.6374 719.411L84.6234 711.642L88.5062 731.141Z" fill="#2D2650"/>
<path d="M235.965 209.336L229.627 201.679L221.972 208.019L183.944 162.078L199.253 149.398L237.281 195.339L260.245 176.318L222.216 130.378L237.525 117.698L275.554 163.639L267.899 169.979L274.238 177.636L235.965 209.336Z" fill="white"/>
<path d="M175.197 275.525L123.151 229.353L136.339 214.478L143.774 221.074L150.368 213.636L157.803 220.233L164.398 212.795L171.833 219.391L178.427 211.954L156.121 192.166L169.309 177.291L221.356 223.463L208.167 238.338L193.297 225.146L186.703 232.583L179.268 225.987L172.674 233.424L165.239 226.829L158.645 234.266L188.385 260.65L175.197 275.525Z" fill="white"/>
<path d="M131.869 342.801L73.3696 305.143L111.016 246.627L119.373 252.007L92.4827 293.804L109.197 304.563L130.709 271.125L139.066 276.505L117.554 309.943L134.268 320.702L161.158 278.905L169.515 284.285L131.869 342.801Z" fill="white"/>
<path d="M99.3475 415.919L35.7749 387.664L43.8456 369.495L52.9273 373.531L56.9626 364.447L66.0444 368.483L70.0797 359.399L60.9979 355.362L65.0332 346.277L55.9514 342.241L64.0225 324.072L127.595 352.328L119.524 370.497L83.1968 354.35L79.1615 363.435L97.3251 371.508L93.2898 380.593L75.1262 372.52L71.0909 381.604L107.418 397.75L99.3475 415.919Z" fill="white"/>
<path d="M519.819 63.6441L511.079 64.3171L506.682 7.18311L524.163 5.8367L528.65 64.1383L528.739 65.3061L529.907 65.2162L559.637 62.9268L560.804 62.8369L560.715 61.6691L556.228 3.36735L573.709 2.02094L578.105 59.1547L569.365 59.8282L568.198 59.9182L568.287 61.0856L568.958 69.8298L521.752 73.4657L521.077 64.7217L520.987 63.5542L519.819 63.6441ZM438.862 32.2646L447.397 30.2608L449.4 38.7984L449.667 39.9388L450.808 39.6711L459.343 37.6673L461.346 46.2048L461.613 47.3453L462.754 47.0775L472.429 44.8061L473.569 44.5384L473.301 43.3983L466.757 15.5046L483.826 11.497L499.187 76.9621L482.117 80.9697L477.843 62.7542L477.575 61.6137L476.435 61.8815L467.9 63.8852L465.897 55.3477L465.63 54.2072L464.489 54.475L455.954 56.4787L453.951 47.9412L453.684 46.8007L452.543 47.0685L442.868 49.34L441.728 49.6077L441.996 50.7478L450.811 88.3196L433.742 92.3268L418.381 26.8619L435.451 22.8544L437.454 31.3919L437.722 32.5323L438.862 32.2646ZM362.649 80.4655L398.416 65.9998L401.264 73.0442L365.496 87.5101L364.41 87.9491L364.849 89.0348L372.299 107.467L372.738 108.553L373.824 108.114L418.805 89.9221L421.652 96.9666L359.33 122.172L334.132 59.8304L396.454 34.6252L399.302 41.6695L354.321 59.8618L353.235 60.3009L353.674 61.3866L361.124 79.8186L361.563 80.9047L362.649 80.4655ZM255.922 105.312L270.979 96.3255L275.471 103.857L276.071 104.863L277.077 104.262L284.605 99.7695L289.097 107.3L289.697 108.306L290.703 107.706L299.238 102.613L300.243 102.013L299.643 101.007L295.152 93.4758L302.681 88.9827L303.686 88.3826L303.086 87.3769L298.595 79.8453L313.652 70.8598L348.093 128.607L333.036 137.593L313.269 104.451L312.669 103.445L311.663 104.045L303.129 109.138L302.123 109.738L302.723 110.744L312.306 126.813L305.784 130.705L296.2 114.637L295.6 113.631L294.594 114.232L286.06 119.325L285.054 119.925L285.654 120.931L305.421 154.073L290.363 163.059L255.922 105.312Z" stroke="#DFDC01" stroke-width="2.34252"/>
<path d="M830.873 129.013L835.966 120.477L827.429 115.383L857.979 64.1607L875.047 74.3472L844.498 125.569L870.103 140.849L900.652 89.6264L917.721 99.8129L887.171 151.036L878.635 145.942L873.546 154.479L830.873 129.013Z" fill="#DFDC01"/>
<path d="M748.179 93.8874L774.256 29.3745L792.681 36.8269L788.959 46.0431L798.172 49.7695L794.445 58.9857L803.657 62.7116L799.936 71.9278L809.148 75.6542L820.323 48.0057L838.748 55.4582L812.676 119.971L794.246 112.519L801.7 94.0862L792.482 90.3603L796.209 81.1441L786.996 77.4177L790.723 68.2015L781.506 64.4756L766.609 101.34L748.179 93.8874Z" fill="#DFDC01"/>
<path d="M670.301 75.5633L686.196 7.81754L753.924 23.7178L751.653 33.3958L703.275 22.0385L698.733 41.3943L737.436 50.4803L735.166 60.1583L696.462 51.0723L691.926 70.4283L740.299 81.7853L738.028 91.4633L670.301 75.5633Z" fill="#DFDC01"/>
<path d="M590.539 69.3813L595.876 0L615.697 1.5263L614.932 11.4379L624.84 12.2011L624.08 22.1127L633.988 22.8758L634.748 12.9642L644.656 13.7273L645.421 3.81577L665.238 5.34206L659.896 74.723L640.08 73.1971L643.131 33.5506L633.223 32.7874L631.697 52.6104L621.789 51.8475L623.314 32.0243L613.406 31.2611L610.355 70.9077L590.539 69.3813Z" fill="#DFDC01"/>
<path d="M1063.13 347.815L1059.57 339.801L1111.92 316.533L1119.04 332.562L1065.62 356.305L1064.55 356.781L1065.02 357.851L1077.13 385.104L1077.6 386.175L1078.67 385.699L1132.09 361.956L1139.21 377.984L1086.86 401.252L1083.3 393.238L1082.83 392.167L1081.76 392.643L1073.74 396.204L1054.52 352.922L1062.53 349.361L1063.61 348.885L1063.13 347.815ZM1007.3 276.275L1063.83 239.886L1073.32 254.635L1065.94 259.38L1064.96 260.014L1065.59 260.999L1070.34 268.374L1062.96 273.12L1061.98 273.754L1062.61 274.739L1067.36 282.113L1059.99 286.859L1059 287.492L1059.63 288.477L1065.01 296.837L1065.64 297.822L1066.63 297.188L1090.72 281.683L1100.2 296.432L1043.67 332.822L1034.19 318.073L1049.91 307.947L1050.9 307.314L1050.27 306.329L1045.52 298.954L1052.9 294.209L1053.88 293.575L1053.25 292.59L1048.5 285.215L1055.87 280.469L1056.86 279.835L1056.22 278.851L1050.85 270.491L1050.21 269.506L1049.23 270.14L1016.79 291.025L1007.3 276.275ZM954.276 216.124L1004.57 171.507L1049.17 221.816L1043.49 226.857L1011.3 190.547L1010.52 189.67L1009.64 190.447L994.773 203.64L993.897 204.417L994.673 205.293L1020.27 234.166L1014.59 239.208L988.993 210.335L988.215 209.458L987.339 210.235L972.467 223.428L971.591 224.205L972.368 225.081L1004.56 261.392L998.879 266.433L954.276 216.124ZM943.617 132.597L950.367 138.19L944.774 144.945L944.027 145.847L944.929 146.594L952.586 152.934L953.488 153.681L954.235 152.779L959.824 146.024L966.579 151.617L967.481 152.365L968.228 151.462L973.816 144.708L987.322 155.894L944.452 207.687L930.947 196.501L955.552 166.776L956.299 165.874L955.397 165.127L947.74 158.786L946.837 158.039L946.09 158.942L934.162 173.353L928.313 168.507L940.243 154.096L940.989 153.193L940.087 152.447L932.43 146.106L931.528 145.359L930.781 146.262L906.176 175.986L892.671 164.801L935.545 113.008L949.051 124.194L943.462 130.948L942.715 131.85L943.617 132.597Z" stroke="#2D2650" stroke-width="2.34252"/>
<path d="M1106.58 664.269L1115.17 665.984L1116.32 666.213L1116.55 665.064L1118.26 656.466L1174.45 667.659L1171.02 684.86L1113.69 673.438L1112.54 673.21L1112.31 674.358L1106.49 703.605L1106.26 704.753L1107.41 704.982L1164.74 716.404L1161.31 733.606L1105.13 722.413L1106.85 713.809L1107.07 712.66L1105.93 712.432L1097.33 710.722L1106.58 664.269ZM1168.62 595.567L1168.24 604.327L1159.48 603.95L1158.31 603.9L1158.26 605.07L1157.89 613.831L1149.13 613.454L1147.96 613.403L1147.91 614.574L1147.48 624.505L1147.43 625.675L1148.6 625.725L1177.22 626.957L1176.46 644.479L1109.3 641.592L1110.06 624.07L1128.74 624.875L1129.91 624.925L1129.96 623.755L1130.34 614.994L1139.1 615.366L1140.27 615.416L1140.32 614.247L1140.7 605.486L1149.45 605.863L1150.62 605.913L1150.67 604.743L1151.1 594.812L1151.15 593.642L1149.98 593.592L1111.43 591.937L1112.19 574.41L1179.35 577.297L1178.6 594.824L1169.84 594.447L1168.67 594.396L1168.62 595.567ZM1110.99 561.518L1103.56 494.684L1170.37 487.251L1177.8 554.083L1170.25 554.922L1164.89 506.685L1164.76 505.521L1163.59 505.65L1143.84 507.852L1142.67 507.982L1142.8 509.146L1147.07 547.502L1139.52 548.341L1135.25 509.985L1135.12 508.821L1133.96 508.951L1114.21 511.148L1113.04 511.277L1113.17 512.441L1118.53 560.679L1110.99 561.518ZM1145.3 428.765L1136.84 431.057L1135.71 431.363L1136.02 432.494L1138.61 442.089L1138.92 443.22L1140.05 442.913L1148.51 440.621L1150.8 449.086L1151.11 450.217L1152.24 449.91L1160.7 447.618L1165.28 464.548L1100.4 482.123L1095.81 465.194L1133.05 455.107L1134.19 454.801L1133.88 453.67L1131.28 444.075L1130.97 442.944L1129.84 443.25L1111.79 448.141L1109.81 440.807L1127.86 435.916L1128.99 435.61L1128.69 434.479L1126.09 424.884L1125.78 423.753L1124.65 424.059L1087.41 434.147L1082.83 417.217L1147.72 399.642L1152.3 416.571L1143.84 418.863L1142.71 419.17L1143.01 420.3L1145.3 428.765Z" stroke="#DFDC01" stroke-width="2.34252"/>
<path d="M969.621 946.994L976.464 954.201L983.674 947.357L1024.73 990.615L1010.31 1004.3L969.259 961.045L947.634 981.578L988.687 1024.84L974.272 1038.52L933.219 995.267L940.429 988.423L933.586 981.216L969.621 946.994Z" fill="white"/>
<path d="M1025.77 876.836L1080.82 919.373L1068.67 935.11L1060.81 929.031L1054.73 936.899L1046.86 930.825L1040.79 938.688L1032.93 932.614L1026.85 940.483L1050.45 958.709L1038.3 974.446L983.241 931.909L995.39 916.172L1011.12 928.33L1017.19 920.462L1025.06 926.535L1031.14 918.672L1039 924.746L1045.08 916.878L1013.62 892.572L1025.77 876.836Z" fill="white"/>
<path d="M1064.43 806.778L1125.35 840.383L1091.76 901.321L1083.05 896.519L1107.05 852.993L1089.65 843.39L1070.45 878.213L1061.75 873.412L1080.95 838.589L1063.54 828.991L1039.54 872.512L1030.84 867.71L1064.43 806.778Z" fill="white"/>
<path d="M1091.93 731.624L1157.27 755.507L1150.45 774.181L1141.12 770.766L1137.7 780.106L1128.37 776.691L1124.96 786.031L1134.29 789.441L1130.88 798.78L1140.22 802.19L1133.39 820.864L1068.06 796.986L1074.87 778.312L1112.22 791.956L1115.62 782.621L1096.96 775.797L1100.37 766.457L1119.03 773.282L1122.45 763.947L1085.11 750.298L1091.93 731.624Z" fill="white"/>
<path d="M660.348 1119.06L669.088 1118.39L673.49 1175.52L656.004 1176.87L651.518 1118.57L651.428 1117.4L650.26 1117.49L620.536 1119.78L619.368 1119.87L619.458 1121.04L623.944 1179.34L606.463 1180.69L602.067 1123.55L610.807 1122.88L611.975 1122.79L611.885 1121.62L611.21 1112.88L658.419 1109.24L659.09 1117.98L659.18 1119.15L660.348 1119.06ZM741.308 1150.44L732.774 1152.44L730.771 1143.9L730.503 1142.76L729.363 1143.03L720.828 1145.04L718.825 1136.5L718.558 1135.36L717.417 1135.63L707.743 1137.9L706.602 1138.16L706.87 1139.3L713.415 1167.2L696.346 1171.21L680.986 1105.74L698.054 1101.74L702.328 1119.95L702.596 1121.09L703.736 1120.82L712.271 1118.82L714.274 1127.36L714.541 1128.5L715.682 1128.23L724.216 1126.22L726.219 1134.76L726.487 1135.9L727.627 1135.63L737.302 1133.36L738.442 1133.1L738.174 1131.96L729.359 1094.39L746.427 1090.38L761.788 1155.84L744.719 1159.85L742.716 1151.31L742.449 1150.17L741.308 1150.44ZM846.039 1122.87L783.718 1148.08L780.869 1141.04L825.851 1122.84L826.936 1122.4L826.498 1121.32L819.049 1102.89L818.61 1101.8L817.524 1102.24L781.755 1116.71L778.906 1109.66L814.676 1095.2L815.761 1094.76L815.322 1093.67L807.874 1075.24L807.435 1074.15L806.349 1074.59L761.367 1092.78L758.519 1085.74L820.839 1060.53L846.039 1122.87ZM903.093 1078.44L895.567 1082.93L891.074 1075.4L890.474 1074.4L889.468 1075L880.931 1080.09L879.926 1080.69L880.526 1081.7L885.019 1089.23L877.493 1093.72L876.488 1094.32L877.087 1095.33L881.576 1102.86L866.519 1111.84L832.076 1054.1L847.133 1045.11L866.901 1078.25L867.501 1079.26L868.506 1078.66L877.043 1073.57L878.049 1072.97L877.449 1071.96L867.863 1055.89L874.388 1052L883.969 1068.07L884.569 1069.07L885.575 1068.47L894.112 1063.38L895.118 1062.78L894.518 1061.77L874.75 1028.63L889.807 1019.65L924.249 1077.4L909.192 1086.38L904.699 1078.85L904.099 1077.84L903.093 1078.44Z" stroke="#2D2650" stroke-width="2.34252"/>
<path d="M349.298 1053.69L344.207 1062.23L352.741 1067.32L322.191 1118.54L305.122 1108.36L335.672 1057.13L310.068 1041.85L279.518 1093.08L262.449 1082.89L292.999 1031.67L301.534 1036.77L306.625 1028.23L349.298 1053.69Z" fill="#DFDC01"/>
<path d="M431.991 1088.82L405.915 1153.33L387.488 1145.88L391.213 1136.66L382 1132.94L385.725 1123.72L376.511 1120L380.236 1110.78L371.023 1107.05L359.847 1134.7L341.421 1127.25L367.497 1062.74L385.924 1070.19L378.473 1088.62L387.687 1092.35L383.961 1101.56L393.175 1105.29L389.45 1114.5L398.663 1118.23L413.564 1081.37L431.991 1088.82Z" fill="#DFDC01"/>
<path d="M509.868 1107.14L493.974 1174.89L426.249 1158.99L428.52 1149.31L476.895 1160.66L481.436 1141.31L442.736 1132.22L445.007 1122.55L483.707 1131.63L488.249 1112.28L439.874 1100.92L442.144 1091.24L509.868 1107.14Z" fill="#DFDC01"/>
<path d="M589.634 1113.33L584.292 1182.7L564.476 1181.18L565.241 1171.27L555.333 1170.51L556.093 1160.59L546.185 1159.83L545.42 1169.74L535.512 1168.98L534.751 1178.89L514.935 1177.36L520.272 1107.98L540.093 1109.51L537.037 1149.15L546.95 1149.92L548.476 1130.1L558.384 1130.86L556.858 1150.68L566.766 1151.44L569.817 1111.8L589.634 1113.33Z" fill="#DFDC01"/>
</g>
</g>
</g>
<defs>
<clipPath id="clip0_1224_5063">
<rect width="1181" height="1183" fill="white"/>
</clipPath>
<clipPath id="clip1_1224_5063">
<rect width="924.444" height="926" fill="white" transform="translate(144 133)"/>
</clipPath>
<clipPath id="clip2_1224_5063">
<rect width="924.153" height="925.987" fill="white" transform="translate(-47.8335 594.813) rotate(-45)"/>
</clipPath>
<clipPath id="clip3_1224_5063">
<rect width="1181" height="1182.99" fill="white"/>
</clipPath>
<clipPath id="clip4_1224_5063">
<rect width="1180.63" height="1182.97" fill="white"/>
</clipPath>
</defs>
</svg>
