<svg width="289" height="273" viewBox="0 0 289 273" fill="none" xmlns="http://www.w3.org/2000/svg">
<g clip-path="url(#clip0_642_1431)">
<path d="M181.833 14.4031H113.833V37.0697H91.1667V59.7364H45.8333V82.4031H23.1667V105.07H0.5V173.07H23.1667V195.736H249.833V173.07H272.5V105.07H249.833V82.4031H227.167V59.7364H204.5V37.0697H181.833V14.4031ZM204.5 105.07H249.833V173.07H23.1667V105.07H45.8333V82.4031H91.1667V105.07H113.833V82.4031H91.1667V59.7364H113.833V37.0697H181.833V59.7364H204.5V105.07ZM204.5 105.07V127.736H181.833V105.07H204.5Z" fill="#DFDC01"/>
<path fill-rule="evenodd" clip-rule="evenodd" d="M96.8329 94.1565H149.092V111.576H96.8329V94.1565ZM79.4131 128.996H96.8329V111.576H79.4131V128.996ZM44.5736 146.416H79.4131V128.996H44.5736V146.416ZM27.1539 163.836H44.5736V146.416H27.1539V163.836ZM27.1539 216.095V163.836H9.73413V216.095H27.1539ZM201.351 216.095H27.1539V233.515H201.351V216.095ZM201.351 163.836H218.771V216.095H201.351V163.836ZM166.512 128.996H149.092V111.576H166.512V128.996ZM166.512 128.996V163.836H201.351V146.416H183.932V128.996H166.512Z" fill="#2D2650"/>
</g>
<defs>
<clipPath id="clip0_642_1431">
<rect width="272" height="272" fill="white" transform="translate(0.5 0.131592)"/>
</clipPath>
</defs>
</svg>
