<svg width="120" height="121" viewBox="0 0 120 121" fill="none" xmlns="http://www.w3.org/2000/svg">
<path d="M62.5033 52.9545H58.9009L56.8692 55.6661H60.4698L62.5033 52.9545ZM71.8484 60.0893C69.9613 60.2178 66.6271 61.6073 64.8111 64.6434C62.9951 67.6794 62.9885 69.5537 62.9885 69.5537C62.9885 69.5537 63.9462 68.6895 65.4144 67.7846C66.8826 66.8797 67.9753 66.5583 67.9753 66.5583C67.9753 66.5583 68.2478 65.4436 68.9258 64.2777C69.5852 63.1437 70.6315 61.963 71.9261 61.6951C74.5503 61.1514 73.2937 65.0938 71.3662 67.6646C70.3301 69.0462 66.6554 73.0169 63.4918 73.0169C60.3281 73.0169 59.7176 70.5062 60.3848 68.1587C61.0514 65.8117 61.9741 62.8297 66.5897 57.4114C71.2053 51.9931 76.2011 48.7809 79.093 47.431C82.0631 46.0455 83.2734 46.6527 83.2734 46.6527C83.2734 46.6527 79.4817 48.575 77.3246 50.8878C75.2621 53.0984 74.0314 55.5858 74.9885 56.8047C75.8998 57.966 79.1122 57.9878 82.6496 53.784C86.1411 49.6342 85.2593 47.1666 85.2593 47.1666C85.2593 47.1666 85.6812 47.0535 85.9645 47.0223C87.6671 46.8357 89.0311 47.2053 91.143 48.0968C93.3555 49.0309 95.4783 50.5291 98.387 51.755C99.2627 50.9652 100.237 50.1263 101.263 49.3077C97.3413 47.7366 94.3645 45.4973 90.5186 45.2825C87.1711 45.0959 84.5318 46.1 84.5318 46.1C84.5318 46.1 83.5108 44.9556 80.3611 45.3291C77.2113 45.7032 67.507 49.0428 59.2505 59.926C51.7853 69.766 55.3027 75.405 60.6687 75.3405C66.4854 75.2701 72.0189 69.9456 73.8916 65.5547C75.7642 61.1638 73.551 59.9737 71.8484 60.0893ZM83.2673 50.9458C82.2897 52.9074 80.8505 54.2781 79.4341 55.3248C77.6175 56.6677 76.6206 56.6226 76.1891 56.3527C75.062 55.6463 76.5742 52.9823 79.199 50.6001C81.813 48.2273 84.0635 47.4891 84.0635 47.4891C84.0635 47.5169 84.4378 48.5939 83.2673 50.9458ZM115.659 48.0854C112.997 49.4948 109.307 50.7712 105.765 50.4899C104.869 51.2554 103.908 52.1374 102.945 53.1023C109.092 54.1005 114.47 50.9657 117.333 48.2947C119.118 46.6294 120 45.1426 120 45.1426C120 45.1426 118.295 46.6894 115.659 48.0854Z" fill="#F40009"/>
<path d="M112.751 60.4518H108.963L108.347 61.2347C108.347 61.2347 107.575 60.0872 106.266 60.1056C104.024 60.1373 101.78 61.5462 99.1727 63.99C97.2615 65.7803 94.0937 69.7664 94.0937 69.7664C94.0937 69.7664 91.6629 72.8496 90.4334 72.608C88.3371 72.1958 92.1927 65.8116 92.1927 65.8116C92.1927 65.8116 94.2196 64.7812 96.8462 62.9621C98.5001 61.8171 100.403 60.242 102.152 58.782C103.742 57.454 105.617 55.6507 107.399 53.6753C106.942 53.7348 106.475 53.775 105.998 53.7943C104.4 55.5287 102.694 57.0809 101.244 58.3147C99.0841 60.1512 97.0976 61.6539 95.6541 62.6123C94.2709 63.5301 93.3837 63.9433 93.3837 63.9433C93.3837 63.9433 96.0223 59.483 100.42 54.5548C104.818 49.6272 110.976 45.0493 110.493 47.2211C110.355 47.8447 109.885 48.7392 109.174 49.8008C109.674 49.715 110.16 49.6078 110.629 49.4858C111.689 47.6855 112.05 46.2017 111.259 45.773C108.032 44.0238 99.8242 51.2618 95.7095 55.4656C91.5954 59.6695 87.8718 66.0939 87.8718 66.0939C87.8718 66.0939 87.2282 66.3161 86.5164 66.4272C86.0673 66.4977 85.8757 66.4823 85.8021 66.4585C85.7654 66.4461 85.7612 66.4253 85.7612 66.4253C85.7612 66.4253 89.3804 60.8562 85.675 60.1175C82.0991 59.4051 75.9032 64.8502 73.7003 68.6378C72.1887 71.2363 71.3359 74.5076 73.9281 75.2864C76.7355 76.1303 81.5042 71.9115 82.6253 70.6857C83.7463 69.4593 85.1458 67.4204 85.1458 67.4204C85.1458 67.4204 85.8305 67.3906 86.2048 67.3455C86.9208 67.2587 87.2559 67.1863 87.2559 67.1863C87.2559 67.1863 86.7918 68.1869 86.2897 69.4554C85.3537 71.8207 84.5093 75.2051 87.8791 75.3643C90.026 75.465 93.1757 72.2737 93.1757 72.2737C93.1757 72.2737 92.3283 75.1113 95.1146 75.3643C97.1717 75.5508 100.165 72.9349 100.165 72.9349C100.165 72.9349 99.5132 75.1887 101.599 75.3871C103.384 75.5573 105.918 73.8344 107.996 71.9388C110.266 69.8691 112.006 67.6025 112.006 67.6025H110.687C110.687 67.6025 107.767 71.2507 105.716 72.227C104.033 73.0287 104.61 71.7443 105.12 71.0711C105.683 70.3285 112.749 60.4518 112.749 60.4523L112.751 60.4518ZM83.8897 67.3232C83.8379 67.4209 82.8898 68.7787 81.8755 69.8463C80.7828 70.9967 78.7824 72.7281 77.58 72.362C75.7001 71.7895 77.7686 68.4185 79.1211 66.7834C80.4736 65.1483 80.6273 65.0377 80.6652 64.995C80.7032 64.9524 80.7412 64.9132 80.7743 64.9638C80.8075 65.0144 81.2378 65.6861 82.0876 66.269C82.9411 66.8544 83.762 67.1634 83.8283 67.1828C83.8946 67.2021 83.9422 67.2255 83.8897 67.3227V67.3232ZM84.7353 66.1083C84.6166 66.271 84.5316 66.2789 84.2851 66.2248C83.8512 66.1281 82.0533 65.444 82.0671 63.9265C82.0798 62.4476 84.6124 60.999 85.6057 61.6182C86.5326 62.1956 86.0896 63.672 85.7401 64.425C85.3911 65.1776 84.8131 66.0016 84.7353 66.1083ZM101.944 69.7664C101.444 70.331 101.025 70.841 100.648 71.1991C99.8417 71.9656 99.3155 72.3223 98.8466 72.4165C98.6104 72.4637 98.3175 72.4523 98.1234 72.3555C97.4351 72.0107 97.9173 70.6683 99.1154 68.8635C100.212 67.214 101.479 65.5636 103.561 63.6635C105.652 61.7561 106.452 61.6643 107.037 61.6861C107.529 61.7035 107.599 62.1296 107.599 62.1296C107.599 62.1296 107.564 62.2283 107.486 62.34C106.796 63.3247 103.319 68.2142 101.943 69.7664H101.944ZM46.0684 72.1526C43.7714 70.9843 40.8248 70.2347 37.4394 70.2104C28.7181 70.1479 19.2224 73.6354 12.7908 73.6826C5.20512 73.7371 4.82722 68.9335 5.38955 66.2958C6.59979 60.6131 11.4968 55.1918 14.6454 52.3333C17.7946 49.4749 21.0944 47.2569 23.838 46.6898C26.5815 46.1228 26.3235 47.8403 25.9878 48.0749C25.6413 48.0809 24.9765 48.1424 24.5992 48.3572C24.0085 48.6925 23.2196 49.3067 23.1701 50.2805C23.0852 51.7807 25.4406 52.0436 27.1432 48.9024C28.3046 46.7598 26.4628 45.3057 24.9331 45.1658C22.835 44.9733 19.6286 45.5736 15.8014 47.5982C9.14022 51.1214 0.230335 58.9452 0.00311267 67.6258C-0.12647 72.5778 3.80381 75.3643 9.19628 75.3643C14.5887 75.3643 21.9099 72.6462 29.0586 72.5768C33.485 72.5455 36.3496 73.8225 37.8004 75.9021C37.8004 75.9021 39.2421 73.9281 42.4527 73.8225C45.629 73.7173 49.1259 74.45 51.9966 76.1109C51.0389 74.9719 48.3316 73.3035 46.0678 72.1526H46.0684Z" fill="#F40009"/>
<path d="M26.2076 52.6506C22.5516 51.8837 16.4799 57.0063 13.9214 61.1754C12.3435 63.7472 11.6516 66.9792 14.4608 67.8201C17.27 68.6609 22.0363 64.4452 23.1573 63.2193C24.2784 61.993 26.113 59.5369 26.113 59.5369C26.113 59.5369 26.676 59.4476 27.0448 59.3771C27.4137 59.3067 28.0098 59.1668 28.0098 59.1668C28.0098 59.1668 27.3184 60.1808 26.6946 61.2201C25.9551 62.4524 23.9457 66.5545 27.8253 67.7848C31.532 68.9601 36.8087 64.0592 37.086 63.9664C37.086 63.9664 35.5153 67.3061 37.9551 67.8201C40.6323 68.3836 43.5663 65.5604 43.5663 65.5604C43.5663 65.5604 42.9486 67.6797 45.0345 67.8786C48.7702 68.2343 55.3777 60.3698 55.3777 60.3698H54.0577C54.0577 60.3698 50.6952 63.9312 49.0781 64.6669C47.4611 65.4026 48.0427 64.0954 48.4821 63.511C49.0426 62.7674 56.1859 52.9428 56.1859 52.9428H52.3979L51.9585 53.5148C51.9585 53.5148 51.178 52.5341 49.8731 52.604C46.0766 52.8079 41.5593 57.7886 39.5728 59.9838C37.5868 62.1795 33.3022 66.3715 31.0462 65.6244C28.5878 64.8098 31.0324 61.0703 32.6494 58.8746C34.41 56.4844 37.5302 54.1171 38.7639 54.0987C40.2822 54.0754 39.6861 55.208 39.6861 55.208C39.6861 55.208 38.5512 55.0914 37.7285 55.9437C37.1463 56.5464 36.6641 57.4265 37.2174 57.9052C38.1112 58.6786 39.275 57.8933 39.97 57.0172C42.1367 54.2872 40.5516 52.8486 38.8495 52.6387C35.2236 52.1908 31.8834 56.025 29.3442 57.4498C27.5824 58.4375 26.8465 58.3606 26.8465 58.3606C26.8465 58.3606 29.9029 53.4255 26.2082 52.6501L26.2076 52.6506ZM42.6225 61.4791C43.7188 59.8291 45.2124 58.2361 47.1561 56.2394C49.0998 54.2426 50.0672 54.0809 50.6524 54.1027C51.1448 54.1206 51.2148 54.5462 51.2148 54.5462C51.2148 54.5462 46.9916 60.603 45.4595 62.3313C44.9592 62.8959 44.5313 63.3741 44.154 63.7328C43.3476 64.4992 42.7617 64.8698 42.3097 64.9621C42.0734 65.0097 41.7805 64.9978 41.5858 64.9006C40.8975 64.5558 41.4225 63.2833 42.6219 61.4791H42.6225ZM24.6991 59.5135C24.6466 59.6108 23.4406 61.2523 22.4268 62.3199C21.3347 63.4704 19.3162 65.2087 18.1138 64.8425C16.234 64.2701 18.2392 60.9224 19.5917 59.2878C20.9442 57.6527 21.1425 57.4424 21.181 57.4002C21.219 57.357 21.2564 57.3179 21.2895 57.369C21.3227 57.4196 21.753 58.1478 22.6848 58.6379C23.6166 59.1286 24.5719 59.3543 24.6382 59.3736C24.7045 59.393 24.7521 59.4168 24.6997 59.5135H24.6991ZM26.2715 56.9582C25.922 57.7117 25.6098 58.1865 25.5453 58.2986C25.4416 58.4782 25.1818 58.4207 25.1818 58.4207C24.8859 58.4097 22.5854 57.9777 22.5986 56.4601C22.6113 54.9813 25.1445 53.5327 26.1371 54.1518C27.0641 54.7293 26.6211 56.2056 26.2715 56.9582ZM109.901 73.5638C109.68 73.4606 109.434 73.4095 109.163 73.4095C108.892 73.4095 108.647 73.4611 108.425 73.5638C108.204 73.667 108.031 73.8069 107.903 73.985C107.777 74.1626 107.713 74.3561 107.713 74.5644C107.713 74.7728 107.776 74.9697 107.903 75.1463C108.03 75.3224 108.204 75.4623 108.425 75.565C108.647 75.6682 108.892 75.7193 109.163 75.7193C109.434 75.7193 109.68 75.6677 109.901 75.565C110.122 75.4623 110.296 75.3224 110.423 75.1463C110.549 74.9702 110.613 74.7762 110.613 74.5644C110.613 74.3526 110.55 74.1626 110.423 73.985C110.296 73.8074 110.122 73.667 109.901 73.5638ZM110.161 75.0426C110.065 75.1835 109.93 75.2942 109.757 75.375C109.584 75.4554 109.385 75.4956 109.163 75.4956C108.941 75.4956 108.742 75.4554 108.569 75.375C108.396 75.2947 108.262 75.184 108.166 75.0426C108.07 74.9018 108.022 74.742 108.022 74.5644C108.022 74.3868 108.07 74.2315 108.166 74.0906C108.261 73.9498 108.397 73.8391 108.572 73.7583C108.747 73.6774 108.944 73.6377 109.163 73.6377C109.382 73.6377 109.58 73.6779 109.754 73.7583C109.929 73.8386 110.065 73.9493 110.161 74.0906C110.256 74.2315 110.305 74.3898 110.305 74.5644C110.305 74.739 110.256 74.9018 110.161 75.0426Z" fill="#F40009"/>
<path d="M109.708 74.5457C109.749 74.4906 109.769 74.4291 109.769 74.3616C109.769 74.2684 109.733 74.1905 109.659 74.127C109.586 74.0635 109.487 74.0317 109.364 74.0317H108.628V75.077H108.952V74.696H109.199L109.497 75.077H109.867L109.533 74.6707C109.608 74.6424 109.667 74.6008 109.708 74.5457ZM109.399 74.4356C109.375 74.4539 109.343 74.4628 109.302 74.4628H108.952V74.2599H109.302C109.343 74.2599 109.375 74.2694 109.399 74.2872C109.423 74.3056 109.435 74.3304 109.435 74.3611C109.435 74.3919 109.423 74.4167 109.399 74.4351V74.4356Z" fill="#F40009"/>
</svg>
