<svg width="273" height="273" viewBox="0 0 273 273" fill="none" xmlns="http://www.w3.org/2000/svg">
<g clip-path="url(#clip0_642_1449)">
<path d="M91.1665 0.131592V22.7816H23.1665V79.3064H0.499817V22.7816V0.131592H23.1665H91.1665Z" fill="#DFDC01"/>
<path d="M181.833 22.7816V0.131592H249.833H272.5V22.7816V79.3064H249.833V22.7816H181.833Z" fill="#DFDC01"/>
<path d="M91.1665 249.482V272.132H23.1665H0.499817V249.482V192.957H23.1665V249.482H91.1665Z" fill="#DFDC01"/>
<path d="M181.833 249.482V272.132H249.833H272.5V249.482V192.957H249.833V249.482H181.833Z" fill="#DFDC01"/>
<path d="M104.28 76.8867H168.72V93.7539H104.28V76.8867ZM72.0594 110.621V93.7539H104.28V110.621H72.0594ZM55.9493 127.488V110.621H72.0594V127.488H55.9493ZM55.9493 144.356V127.488H39.8391V144.356H55.9493ZM72.0594 161.223H55.9493V144.356H72.0594V161.223ZM104.28 178.09H72.0594V161.223H104.28V178.09ZM168.72 178.09V194.957H104.28V178.09H168.72ZM200.941 161.223V178.09H168.72V161.223H200.941ZM217.051 144.356V161.223H200.941V144.356H217.051ZM217.051 127.488H233.161V144.356H217.051V127.488ZM200.941 110.621H217.051V127.488H200.941V110.621ZM200.941 110.621V93.7539H168.72V110.621H200.941Z" fill="#2D2650"/>
<path d="M150.876 120.87H122.124V150.973H150.876V120.87Z" fill="#DFDC01"/>
</g>
<defs>
<clipPath id="clip0_642_1449">
<rect width="272" height="272" fill="white" transform="translate(0.5 0.131592)"/>
</clipPath>
</defs>
</svg>
