<svg width="120" height="121" viewBox="0 0 120 121" fill="none" xmlns="http://www.w3.org/2000/svg">
<path d="M14.779 40.1353H15.8462C19.5508 40.2151 23.1951 41.6927 25.8126 44.3085C24.8461 45.2869 23.8595 46.2254 22.9132 47.2038C21.4434 45.886 19.6716 44.8676 17.7388 44.5082C14.8797 43.9092 11.7992 44.4483 9.40323 46.0657C6.78579 47.7629 5.01399 50.6383 4.63144 53.7133C4.20862 56.7484 5.07439 59.9433 7.06767 62.2994C8.98041 64.5957 11.8999 66.0334 14.92 66.1333C17.7388 66.293 20.6784 65.4344 22.732 63.4775C24.3428 62.0998 25.0877 60.0032 25.3293 57.9664C21.9871 57.9664 18.6448 57.9864 15.3025 57.9664V53.8531H29.3763C30.1011 58.266 29.0542 63.2379 25.6716 66.3928C23.4166 68.6292 20.2958 69.9471 17.1146 70.2067C14.0341 70.5062 10.8529 69.9271 8.11465 68.4495C4.83278 66.7123 2.21534 63.7771 0.926757 60.3226C-0.281292 57.1478 -0.301426 53.5536 0.826086 50.3587C1.85293 47.4434 3.82607 44.8676 6.36298 43.0705C8.79921 41.2934 11.7589 40.315 14.779 40.1353Z" fill="#3780FF"/>
<path d="M95.5171 41.1733H99.8258V69.6873C98.3963 69.6873 96.9466 69.7072 95.5171 69.6673C95.5372 60.1826 95.5171 50.678 95.5171 41.1733Z" fill="#38B137"/>
<path d="M38.9601 51.058C41.6178 50.5588 44.497 51.1179 46.6917 52.6953C48.6849 54.0931 50.0742 56.2895 50.497 58.6857C51.0406 61.4612 50.3561 64.4963 48.544 66.6927C46.591 69.1488 43.3897 70.4666 40.2689 70.267C37.4098 70.1072 34.6313 68.6895 32.94 66.3732C31.0273 63.8174 30.5642 60.3031 31.6112 57.3079C32.6582 54.0931 35.6179 51.6371 38.9601 51.058ZM39.5642 54.8519C38.4769 55.1314 37.4702 55.7504 36.7454 56.629C34.7924 58.9452 34.9132 62.7192 37.0675 64.8757C38.2957 66.1137 40.1481 66.6927 41.8595 66.3533C43.4501 66.0737 44.8393 65.0154 45.6044 63.6177C46.9333 61.2415 46.5507 57.9668 44.5172 56.1098C43.2084 54.9118 41.2957 54.4126 39.5642 54.8519Z" fill="#FA3913"/>
<path d="M60.3022 51.058C63.3425 50.4789 66.6646 51.3176 68.9397 53.4342C72.6444 56.7288 73.0471 62.8989 69.8861 66.6927C67.9733 69.0889 64.8727 70.4067 61.8123 70.267C58.8928 70.1871 56.0136 68.7494 54.2821 66.3733C52.3291 63.7575 51.9063 60.1633 53.0136 57.1082C54.121 53.9933 57.0203 51.6171 60.3022 51.058ZM60.9062 54.8519C59.819 55.1314 58.8123 55.7504 58.0874 56.609C56.1546 58.8853 56.2351 62.5993 58.3089 64.7758C59.5371 66.0737 61.4498 66.7127 63.2217 66.3533C64.7921 66.0538 66.2015 65.0154 66.9666 63.6177C68.2753 61.2216 67.8928 57.9469 65.8391 56.0899C64.5304 54.8918 62.6176 54.4126 60.9062 54.8519Z" fill="#FCBD06"/>
<path d="M78.4027 52.2158C80.7181 50.7781 83.7986 50.3787 86.2953 51.6167C87.0805 51.9562 87.7248 52.5353 88.3489 53.1143C88.3691 52.5752 88.3489 52.0161 88.3691 51.457C89.7181 51.477 91.067 51.457 92.4362 51.477V69.0885C92.416 71.7442 91.7315 74.5597 89.7986 76.4965C87.6845 78.6331 84.4429 79.292 81.5235 78.8527C78.4027 78.3935 75.6846 76.1371 74.4765 73.2817C75.6846 72.7027 76.953 72.2434 78.2013 71.7043C78.906 73.3416 80.3355 74.7394 82.1275 75.0589C83.9194 75.3784 85.9932 74.9391 87.161 73.4614C88.4093 71.9439 88.4093 69.8673 88.3489 68.0103C87.4228 68.9088 86.3557 69.7075 85.0671 70.007C82.2684 70.7858 79.1879 69.8273 77.0335 67.9504C74.8591 66.0734 73.5705 63.1781 73.6913 60.3027C73.7517 57.048 75.604 53.913 78.4027 52.2158ZM82.5704 54.7716C81.3423 54.9713 80.1946 55.6502 79.4094 56.5887C77.5168 58.8251 77.5168 62.3993 79.4295 64.5958C80.5168 65.8937 82.2684 66.6125 83.9597 66.4328C85.5503 66.2731 87.0201 65.2747 87.8053 63.8969C89.1342 61.5607 88.9127 58.3858 87.1208 56.3491C86.0134 55.0911 84.2416 54.4721 82.5704 54.7716Z" fill="#3780FF"/>
<path d="M105 53.2344C107.416 50.998 111.141 50.2392 114.241 51.4173C117.181 52.5155 119.053 55.2911 120 58.1464C115.63 59.9435 111.282 61.7207 106.912 63.5178C107.516 64.6559 108.443 65.6943 109.691 66.1136C111.443 66.7326 113.537 66.5129 115.006 65.3548C115.59 64.9155 116.053 64.3364 116.496 63.7773C117.604 64.5162 118.711 65.235 119.818 65.9738C118.248 68.31 115.61 69.9474 112.771 70.207C109.63 70.5863 106.288 69.3883 104.255 66.9522C100.912 63.1184 101.235 56.6888 105 53.2344ZM107.154 56.9284C106.469 57.9068 106.188 59.1049 106.208 60.283C109.127 59.0849 112.047 57.8869 114.966 56.6688C114.483 55.5506 113.315 54.8717 112.127 54.692C110.214 54.3526 108.221 55.3709 107.154 56.9284Z" fill="#FA3913"/>
</svg>
