<svg width="120" height="121" viewBox="0 0 120 121" fill="none" xmlns="http://www.w3.org/2000/svg">
<path fill-rule="evenodd" clip-rule="evenodd" d="M104.816 48.4181C105.529 41.2237 98.6897 35.8272 92.6464 32.7579C90.3943 31.6497 88.0327 30.7508 85.6379 29.9288C74.9212 26.5179 62.3238 25.3265 50.3534 26.6749C39.3249 28.0787 28.6082 30.5106 20.2 37.6004C16.18 41.0667 13.7885 46.2755 15.7521 51.2749C18.316 57.358 25.1586 61.4061 31.255 63.7612C49.2953 70.5338 73.8333 70.2968 91.3064 62.5452C97.29 59.7407 103.987 55.086 104.816 48.4181ZM112.458 93.4622V77.3618V77.3588H100.083C97.2834 77.3588 96.3115 78.6055 96.3115 80.8374V93.4622H100.083V88.8322H108.687V93.4622H112.458ZM101.605 80.3172H108.687L108.69 85.6891H100.086V81.998C100.086 80.6558 100.414 80.3818 101.605 80.3172ZM45.5937 31.2772L45.4776 31.6743C37.9816 39.5829 33.0527 48.7629 28.3793 57.8875C27.7103 58.47 27.0555 58.0556 26.4281 57.6584C26.2001 57.5141 25.9758 57.3721 25.7557 57.281C21.5964 54.7413 17.8351 50.6407 18.9197 45.7737C20.6577 39.4259 27.696 36.0365 33.5702 33.7369C37.097 32.4732 40.7549 31.551 44.4859 30.9847C44.534 30.9851 44.5839 30.9847 44.6348 30.9842C45.0013 30.9809 45.419 30.9772 45.5937 31.2772ZM83.1584 32.7041C83.0324 32.6559 82.9055 32.6073 82.7854 32.5486C75.6343 30.6954 68.1084 29.5871 60.1248 29.6364C56.4199 29.6887 53.7432 32.8903 52.2307 35.6147C51.0897 37.782 49.7796 40.3741 50.7481 42.8615C50.9901 43.2525 51.314 43.5945 51.7009 43.8674C52.0877 44.1402 52.5295 44.3383 53.0002 44.45C56.0687 45.0742 58.9098 44.3234 61.6877 43.5893C62.444 43.3895 63.1956 43.1908 63.9458 43.0215C70.8448 40.9313 77.5979 38.5516 83.4986 34.2664C83.5473 34.2112 83.6033 34.1559 83.6605 34.0995C83.9035 33.8598 84.1681 33.5989 83.9828 33.2351C83.7991 32.9494 83.4815 32.8278 83.1584 32.7041ZM69.3622 52.2816C69.9898 55.2783 68.4947 57.8121 67.0577 60.2473C66.9226 60.4763 66.7879 60.7045 66.6557 60.9321C64.9442 63.3918 62.1249 65.5067 58.7317 65.1927C51.2968 65.0972 43.9119 64.0467 36.7875 62.0711C36.4597 61.9924 36.1749 61.8037 35.9881 61.5416C35.8455 61.1722 36.0478 60.8274 36.3331 60.5904C42.3536 56.0647 49.4681 53.8595 56.5557 51.6627L56.5589 51.6617C56.8853 51.5605 57.2115 51.4594 57.5377 51.358L57.5726 51.3486C60.3254 50.6094 63.2524 49.8234 66.3439 50.1944C67.6242 50.3514 68.9078 51.1702 69.3622 52.2816ZM100.968 49.08C102.053 44.6377 98.8589 40.959 95.3264 38.2622C95.0677 38.1014 94.8162 37.9223 94.564 37.7427C93.8172 37.2109 93.0645 36.675 92.1025 36.5968C91.8606 36.6777 91.6449 36.8143 91.4756 36.9939C90.109 39.7984 88.6264 42.6552 87.031 45.432C83.5815 51.5951 79.6477 57.6781 74.4635 63.1024L74.3773 63.4718C74.4236 63.7324 74.6827 63.7435 74.9006 63.7528C74.9479 63.7548 74.9932 63.7568 75.034 63.7612C78.6031 63.451 81.8992 62.4309 85.1615 61.4212L85.1616 61.4212L85.3792 61.3538C91.5054 59.1342 99.2005 55.6402 100.968 49.08Z" fill="#397DB7"/>
<path fill-rule="evenodd" clip-rule="evenodd" d="M92.5396 89.55V80.8379C92.5396 79.2525 91.9824 77.3592 88.7683 77.3623H76.8741V93.4627H88.7683C90.8613 93.4627 92.5396 92.3237 92.5396 89.55ZM87.1331 80.3145C88.1481 80.3145 88.7252 80.9241 88.7252 81.8045V88.8327C88.7252 89.4853 88.6125 90.3072 87.1331 90.378H80.6487V80.3145H87.1331Z" fill="#397DB7"/>
<path d="M0 77.3589H3.77125V83.7036H12.2093V77.3589H15.9805V93.4593H12.2093V86.8867H3.77125V93.4593H0V77.3589ZM22.4451 77.3589L27.1716 83.9376L31.8417 77.3589H36.4222L29.0555 87.6502V93.4593H25.2843V87.6502L17.8645 77.3589H22.4451ZM57.5903 77.3589H69.7432C71.4746 77.3589 73.1529 77.5836 73.1032 80.8376V93.4624H69.3319V81.9951C69.3319 80.6067 69.1528 80.3142 67.982 80.3142H61.3616V93.4624H57.5903V77.3589ZM116.229 77.362H120V93.4624H116.229V77.362ZM38.3062 93.4593H50.4591C52.8771 93.4593 53.8688 92.8097 53.8191 89.5742V77.3589H50.0478V88.8508C50.0478 90.23 49.8687 90.3962 48.6945 90.3962H42.0741V77.3589H38.3029L38.3062 93.4593Z" fill="#397DB7"/>
</svg>
