<svg width="279" height="242" viewBox="0 0 279 242" fill="none" xmlns="http://www.w3.org/2000/svg">
<path fill-rule="evenodd" clip-rule="evenodd" d="M0 0H42V120H50V100H60V80H70V60H80V40H100V0H142V242H100V122H92V142H82V162H72V182H62V202H42V242H0V0ZM37 5H5V237H37V197H57V177H67V157H77V137H87V117H97V97H105V237H137V5H105V45H85V65H75V85H65V105H55V125H45V145H37V5Z" fill="#EBE965"/>
<path fill-rule="evenodd" clip-rule="evenodd" d="M157 0H279V42H239V242H197V42H157V0ZM274 5H162V37H202V237H234V37H274V5Z" fill="#EBE965"/>
</svg>
