<svg width="152" height="152" viewBox="0 0 152 152" fill="none" xmlns="http://www.w3.org/2000/svg">
<path d="M53.1469 52.929H99.3846V98.8626H53.1469V52.929Z" fill="#2D2650"/>
<path fill-rule="evenodd" clip-rule="evenodd" d="M152 75.6318C152 117.329 117.974 151.132 76 151.132C34.0264 151.132 0 117.329 0 75.6318C0 33.9343 34.0264 0.131836 76 0.131836C117.974 0.131836 152 33.9343 152 75.6318ZM76 129.485C105.646 129.485 129.678 105.61 129.678 76.1598C129.678 46.7091 105.646 22.8346 76 22.8346C46.3543 22.8346 22.3217 46.7091 22.3217 76.1598C22.3217 105.61 46.3543 129.485 76 129.485Z" fill="#DFDC01"/>
</svg>
