<svg width="1103" height="606" viewBox="0 0 1103 606" fill="none" xmlns="http://www.w3.org/2000/svg">
<path d="M38.5 0.263672H0.5V195.264H5.5V5.26367H33.5V93.7637H76V5.26367H104V195.264H109V0.263672H71V88.7637H38.5V0.263672Z" fill="#EBE965"/>
<path d="M33.5 195.264H38.5V126.764H71V195.264H76V121.764H33.5V195.264Z" fill="#EBE965"/>
<path d="M186.5 0.263672V17.7637H169V197.264H186.5V195.264H191.5V192.264H174V23.2637H192V5.26367H255V23.2637H272.5V192.264H255.5V195.264H260V197.264H278V17.7637H260V0.263672H186.5Z" fill="#EBE965"/>
<path fill-rule="evenodd" clip-rule="evenodd" d="M244.5 181.764V33.7637H202.5V181.764H244.5ZM207.5 176.764H239.5V38.7637H207.5V176.764Z" fill="#EBE965"/>
<path d="M429 0.263672H337.5V195.264H343L342.5 5.26367H424V22.7637H441V104.264H424V111.264H441V192.264H424V195.264H429V197.264H446.5V17.7637H429V0.263672Z" fill="#EBE965"/>
<path fill-rule="evenodd" clip-rule="evenodd" d="M371 33.7637H413V93.2637H371V33.7637ZM408 38.7637H376V88.2637H408V38.7637Z" fill="#EBE965"/>
<path fill-rule="evenodd" clip-rule="evenodd" d="M371 122.264H413V181.764H371V122.264ZM408 127.264H376V176.764H408V127.264Z" fill="#EBE965"/>
<path d="M524 0.263672V17.7637H506.5V197.264H524V195.264H529V192.264H511.5V23.2637H529.5V5.26367H592.5V23.2637H610V192.264H593V195.264H597.5V197.264H615.5V17.7637H597.5V0.263672H524Z" fill="#EBE965"/>
<path fill-rule="evenodd" clip-rule="evenodd" d="M582 181.764V33.7637H540V181.764H582ZM545 176.764H577V38.7637H545V176.764Z" fill="#EBE965"/>
<path d="M692.5 0.263672V17.7637H675V197.264H692.5V195.264H697.5V192.264H680V23.2637H698V5.26367H761V23.2637H778.5V68.7637H750.5V33.7637H708.5V181.764H750.5V146.264H778.5V192.264H761.5V195.264H766V197.264H784V141.764H745.5V176.764H713.5V38.7637H745.5V73.7637H784V17.7637H766V0.263672H692.5Z" fill="#EBE965"/>
<path d="M934.5 0.263672H826V38.2637H861V195.264H866.5V33.2637H831V5.26367H929.5V33.2637H894V195.264H899.5V38.2637H934.5V0.263672Z" fill="#EBE965"/>
<path d="M1015 0.263672H977V195.264H981.5V5.26367H1010V128.764H1017V111.264H1026V93.7637H1034.5V75.7637H1043.5V58.2637H1052.5V40.7637H1070V5.26367H1098V195.264H1103V0.263672H1065V35.7637H1047.5V53.2637H1038.5V71.2637H1030V88.7637H1021V106.264H1015V0.263672Z" fill="#EBE965"/>
<path d="M1010 195.264H1015V179.764H1032.5V162.264H1041.5V144.264H1050.5V126.764H1059V109.264H1065V195.264H1070V86.2637H1062.5V104.264H1054V121.764H1045V139.264H1036V157.264H1027.5V174.764H1010V195.264Z" fill="#EBE965"/>
<path d="M109 195.264H104H76H71V283.764H38.5V195.264H33.5H5.5H0.5V390.264H38.5V321.764H71V390.264H109V195.264Z" fill="#FBFBFB"/>
<path fill-rule="evenodd" clip-rule="evenodd" d="M260 197.264V195.264H255.5H191.5H186.5V197.264V212.764H169V392.264H186.5V390.264H191.5H255.5H260V392.264H278V212.764H260V197.264ZM207.5 371.264H239.5V233.264H207.5V371.264Z" fill="#FBFBFB"/>
<path fill-rule="evenodd" clip-rule="evenodd" d="M429 197.264V195.264H424H343H337.5L337 390.264H342.5H424H428.5V392.264H446.5V212.764H429V197.264ZM408 234.264H376V283.764H408V234.264ZM408 321.764H376V371.264H408V321.764Z" fill="#FBFBFB"/>
<path fill-rule="evenodd" clip-rule="evenodd" d="M597.5 197.264V195.264H593H529H524V197.264V212.764H506.5V392.264H524V390.264H529H593H597.5V392.264H615.5V212.764H597.5V197.264ZM545 371.264H577V233.264H545V371.264Z" fill="#FBFBFB"/>
<path d="M766 197.264V195.264H761.5H697.5H692.5V197.264V212.764H675V392.264H692.5V390.264H697.5H761.5H766V392.264H784V336.764H745.5V371.264H713.5V233.264H745.5V268.764H784V212.764H766V197.264Z" fill="#FBFBFB"/>
<path d="M899.5 195.264H894H866.5H861H826V233.264H861V390.264H899.5V233.264H934.5V195.264H899.5Z" fill="#FBFBFB"/>
<path d="M1103 195.264H1098H1070H1065V230.764H1047.5V248.264H1038.5V266.264H1030V283.764H1021V301.264H1015V195.264H1010H981.5H977V390.264H1015V374.764H1032.5V357.264H1041.5V339.264H1050.5V321.764H1059V304.264H1065V390.264H1103V195.264Z" fill="#FBFBFB"/>
<path d="M109 390.264H71V478.764H38.5V390.264H0.5V605.264H38.5V517.264H71V605.264H109V390.264Z" fill="#F5F5F5"/>
<path fill-rule="evenodd" clip-rule="evenodd" d="M260 392.264V390.264H255.5H191.5H186.5V392.264V407.764H169V587.264H186.5V605.264H260V587.264H278V407.764H260V392.264ZM207.5 566.764H239.5V428.764H207.5V566.764Z" fill="#F5F5F5"/>
<path fill-rule="evenodd" clip-rule="evenodd" d="M428.5 392.264V390.264H424H342.5H337V605.264H428V587.264H446V407.764H428.5V392.264ZM408 429.264H376V478.764H408V429.264ZM408 517.264H376V566.764H408V517.264Z" fill="#F5F5F5"/>
<path fill-rule="evenodd" clip-rule="evenodd" d="M597.5 392.264V390.264H593H529H524V392.264V407.764H506.5V587.264H524V605.264H597.5V587.264H615.5V407.764H597.5V392.264ZM545 566.764H577V428.764H545V566.764Z" fill="#F5F5F5"/>
<path d="M766 392.264V390.264H761.5H697.5H692.5V392.264V407.764H675V587.264H692.5V605.264H766V587.264H784V531.764H745.5V566.764H713.5V428.764H745.5V463.764H784V407.764H766V392.264Z" fill="#F5F5F5"/>
<path d="M861 390.264H826V428.264H861V605.264H899.5V428.264H934.5V390.264H899.5H861Z" fill="#F5F5F5"/>
<path d="M1015 390.264H977V605.264H1015V569.764H1032.5V552.264H1041.5V534.264H1050.5V516.764H1059V499.264H1065V605.264H1103V390.264H1065V425.764H1047.5V443.264H1038.5V461.264H1030V478.764H1021V496.264H1015V390.264Z" fill="#F5F5F5"/>
</svg>
