<svg width="600" height="509" viewBox="0 0 600 509" fill="none" xmlns="http://www.w3.org/2000/svg">
<g clip-path="url(#clip0_661_5772)">
<g clip-path="url(#clip1_661_5772)">
<path d="M80.9973 483.56L71.4052 480.961L68.8074 490.557L11.2525 474.967L16.4475 455.777L74.0025 471.366L81.7948 442.58L24.2401 426.99L29.4351 407.8L86.9899 423.389L84.3926 432.984L93.9853 435.583L80.9973 483.56Z" fill="#2D2650"/>
<path d="M69.5182 572.688L0.378723 564.998L2.57559 545.236L12.4526 546.334L13.5511 536.458L23.4281 537.556L24.5266 527.675L34.4036 528.774L35.5021 518.892L5.87089 515.597L8.06777 495.838L77.2072 503.529L75.0104 523.291L55.2563 521.089L54.1576 530.97L44.2807 529.872L43.1823 539.753L33.3052 538.655L32.2068 548.536L71.715 552.93L69.5182 572.688Z" fill="#2D2650"/>
<path d="M72.9148 652.648L3.41329 655.63L0.427526 586.108L10.3563 585.686L12.489 635.341L32.3466 634.491L30.6405 594.762L40.5693 594.334L42.2754 634.063L62.1331 633.208L60.0004 583.548L69.9289 583.121L72.9148 652.648Z" fill="#2D2650"/>
<path d="M88.5065 731.141L20.2812 744.735L16.3983 725.236L26.1447 723.293L24.2033 713.546L33.9497 711.602L32.0083 701.85L22.2618 703.794L20.3204 694.046L10.5739 695.985L6.69102 676.486L74.9163 662.892L78.7991 682.391L39.8133 690.16L41.7548 699.912L61.2477 696.025L63.189 705.777L43.6962 709.659L45.6377 719.411L84.6237 711.642L88.5065 731.141Z" fill="#2D2650"/>
<path d="M235.965 209.336L229.626 201.679L221.972 208.019L183.944 162.078L199.253 149.398L237.281 195.339L260.245 176.318L222.216 130.378L237.525 117.698L275.554 163.639L267.899 169.979L274.237 177.636L235.965 209.336Z" fill="white"/>
<path d="M175.197 275.525L123.151 229.353L136.339 214.478L143.774 221.074L150.368 213.636L157.803 220.233L164.397 212.795L171.833 219.391L178.426 211.954L156.121 192.166L169.309 177.291L221.355 223.463L208.167 238.338L193.297 225.146L186.703 232.583L179.268 225.987L172.674 233.424L165.239 226.829L158.644 234.266L188.385 260.65L175.197 275.525Z" fill="white"/>
<path d="M131.869 342.801L73.3694 305.143L111.016 246.627L119.373 252.007L92.4826 293.804L109.197 304.563L130.709 271.125L139.066 276.505L117.554 309.943L134.268 320.702L161.158 278.905L169.515 284.285L131.869 342.801Z" fill="white"/>
<path d="M99.3474 415.919L35.7748 387.664L43.8455 369.495L52.9272 373.531L56.9625 364.447L66.0443 368.483L70.0796 359.398L60.9978 355.362L65.0331 346.277L55.9513 342.241L64.0224 324.072L127.595 352.328L119.524 370.497L83.1967 354.35L79.1614 363.435L97.325 371.508L93.2897 380.593L75.1261 372.52L71.0908 381.604L107.418 397.75L99.3474 415.919Z" fill="white"/>
<path d="M519.819 63.6441L511.079 64.3172L506.682 7.18319L524.163 5.83678L528.649 64.1383L528.739 65.3062L529.907 65.2163L559.637 62.9269L560.804 62.837L560.714 61.6692L556.228 3.36742L573.709 2.02101L578.105 59.1548L569.365 59.8283L568.197 59.9183L568.287 61.0857L568.958 69.8298L521.752 73.4658L521.077 64.7218L520.987 63.5542L519.819 63.6441ZM438.862 32.2646L447.397 30.2609L449.4 38.7984L449.667 39.9389L450.808 39.6711L459.342 37.6674L461.346 46.2049L461.613 47.3454L462.754 47.0776L472.429 44.8062L473.569 44.5385L473.301 43.3984L466.756 15.5046L483.826 11.4971L499.187 76.9622L482.117 80.9698L477.842 62.7543L477.575 61.6138L476.434 61.8816L467.9 63.8853L465.897 55.3478L465.629 54.2073L464.489 54.4751L455.954 56.4788L453.951 47.9413L453.684 46.8008L452.543 47.0686L442.868 49.3401L441.728 49.6077L441.995 50.7479L450.811 88.3197L433.742 92.3269L418.381 26.862L435.451 22.8545L437.454 31.3919L437.721 32.5324L438.862 32.2646ZM362.649 80.4655L398.416 65.9998L401.263 73.0443L365.496 87.5102L364.41 87.9492L364.849 89.0349L372.299 107.467L372.738 108.554L373.824 108.114L418.805 89.9222L421.652 96.9666L359.33 122.172L334.132 59.8305L396.454 34.6253L399.302 41.6696L354.32 59.8619L353.235 60.301L353.674 61.3866L361.124 79.8186L361.563 80.9048L362.649 80.4655ZM255.922 105.312L270.979 96.3256L275.471 103.857L276.071 104.863L277.077 104.262L284.605 99.7696L289.097 107.3L289.697 108.306L290.703 107.706L299.238 102.613L300.243 102.013L299.643 101.007L295.151 93.4759L302.681 88.9827L303.686 88.3827L303.086 87.377L298.594 79.8454L313.652 70.8598L348.093 128.607L333.036 137.593L313.269 104.451L312.669 103.445L311.663 104.045L303.129 109.139L302.123 109.739L302.723 110.744L312.306 126.813L305.784 130.705L296.2 114.638L295.6 113.631L294.594 114.232L286.059 119.325L285.054 119.925L285.654 120.931L305.421 154.073L290.363 163.059L255.922 105.312Z" stroke="#DFDC01" stroke-width="2.34252"/>
<path d="M830.873 129.013L835.966 120.477L827.429 115.383L857.979 64.1608L875.047 74.3473L844.498 125.569L870.103 140.849L900.652 89.6265L917.721 99.813L887.171 151.036L878.635 145.942L873.546 154.479L830.873 129.013Z" fill="#DFDC01"/>
<path d="M748.179 93.8874L774.256 29.3745L792.681 36.827L788.959 46.0432L798.172 49.7695L794.445 58.9858L803.657 62.7116L799.936 71.9279L809.148 75.6542L820.323 48.0057L838.748 55.4582L812.676 119.971L794.246 112.519L801.7 94.0862L792.482 90.3604L796.209 81.1441L786.996 77.4178L790.723 68.2015L781.506 64.4757L766.609 101.34L748.179 93.8874Z" fill="#DFDC01"/>
<path d="M670.301 75.5633L686.196 7.81759L753.924 23.7179L751.653 33.3958L703.275 22.0385L698.733 41.3944L737.436 50.4804L735.166 60.1584L696.462 51.0723L691.926 70.4284L740.299 81.7854L738.028 91.4634L670.301 75.5633Z" fill="#DFDC01"/>
<path d="M590.539 69.3813L595.876 4.57764e-05L615.697 1.52635L614.932 11.4379L624.84 12.2011L624.08 22.1127L633.988 22.8758L634.748 12.9643L644.656 13.7274L645.421 3.81581L665.238 5.3421L659.896 74.7231L640.08 73.1972L643.131 33.5506L633.223 32.7874L631.697 52.6105L621.789 51.8475L623.314 32.0243L613.406 31.2612L610.355 70.9078L590.539 69.3813Z" fill="#DFDC01"/>
</g>
</g>
<defs>
<clipPath id="clip0_661_5772">
<rect width="1181" height="1182.99" fill="white"/>
</clipPath>
<clipPath id="clip1_661_5772">
<rect width="1180.63" height="1182.97" fill="white"/>
</clipPath>
</defs>
</svg>
