<svg width="279" height="242" viewBox="0 0 279 242" fill="none" xmlns="http://www.w3.org/2000/svg">
<path fill-rule="evenodd" clip-rule="evenodd" d="M194 117H242V205H194V117ZM237 122H199V200H237V122Z" fill="#EBE965"/>
<path fill-rule="evenodd" clip-rule="evenodd" d="M157 0V242H259V222H279V100H259V80H199V42H279V0H157ZM274 5H162V237H254V217H274V105H254V85H194V37H274V5Z" fill="#EBE965"/>
<path fill-rule="evenodd" clip-rule="evenodd" d="M80 82H122V20H102V0H20V20H0V222H20V242H102V222H122V160H80V200H42V42H80V82ZM117 77H85V37H37V205H85V165H117V217H97V237H25V217H5V25H25V5H97V25H117V77Z" fill="#EBE965"/>
</svg>
