<svg width="40" height="41" viewBox="0 0 40 41" fill="none" xmlns="http://www.w3.org/2000/svg">
<path d="M32.5875 5.12701C32.1862 5.15621 31.7924 5.25035 31.4213 5.40576H31.4163C31.06 5.54701 29.3663 6.25951 26.7913 7.33951L17.5638 11.2258C10.9425 14.0133 4.43378 16.7583 4.43378 16.7583L4.51128 16.7283C4.51128 16.7283 4.06253 16.8758 3.59378 17.197C3.30419 17.3813 3.05499 17.6224 2.86128 17.9058C2.63128 18.2433 2.44628 18.7595 2.51503 19.2933C2.62753 20.1958 3.21253 20.737 3.63253 21.0358C4.05753 21.3383 4.46253 21.4795 4.46253 21.4795H4.47253L10.5763 23.5358C10.85 24.4145 12.4363 29.6295 12.8175 30.8308C13.0425 31.5483 13.2613 31.997 13.535 32.3395C13.6675 32.5145 13.8225 32.6608 14.0088 32.7783C14.1056 32.8346 14.2088 32.8791 14.3163 32.9108L14.2538 32.8958C14.2725 32.9008 14.2875 32.9158 14.3013 32.9208C14.3513 32.9345 14.385 32.9395 14.4488 32.9495C15.415 33.242 16.1913 32.642 16.1913 32.642L16.235 32.607L19.8388 29.3258L25.8788 33.9595L26.0163 34.0183C27.275 34.5708 28.55 34.2633 29.2238 33.7208C29.9025 33.1745 30.1663 32.4758 30.1663 32.4758L30.21 32.3633L34.8775 8.45201C35.01 7.86201 35.0438 7.30951 34.8975 6.77326C34.7467 6.23054 34.3985 5.76377 33.9213 5.46451C33.5206 5.22091 33.0559 5.10332 32.5875 5.12701ZM32.4613 7.68951C32.4563 7.76826 32.4713 7.75951 32.4363 7.91076V7.92451L27.8125 31.587C27.7925 31.6208 27.7588 31.6945 27.6663 31.7683C27.5688 31.8458 27.4913 31.8945 27.085 31.7333L19.6975 26.0695L15.235 30.137L16.1725 24.1495L28.2425 12.8995C28.74 12.437 28.5738 12.3395 28.5738 12.3395C28.6088 11.772 27.8225 12.1733 27.8225 12.1733L12.6025 21.602L12.5975 21.577L5.30253 19.1208V19.1158L5.28378 19.112C5.29656 19.1078 5.30909 19.1028 5.32128 19.097L5.36128 19.077L5.40003 19.0633C5.40003 19.0633 11.9138 16.3183 18.535 13.5308C21.85 12.1345 25.19 10.7283 27.7588 9.64326C29.2822 9.00202 30.8072 8.36451 32.3338 7.73076C32.4363 7.69076 32.3875 7.68951 32.4613 7.68951Z" fill="#DFDC01"/>
</svg>
