<svg width="120" height="121" viewBox="0 0 120 121" fill="none" xmlns="http://www.w3.org/2000/svg">
<g clip-path="url(#clip0_2119_392)">
<path d="M120.002 76.7374V44.1318H0.00195312V76.7374H120.002Z" fill="#008860"/>
<path d="M81.0057 63.0754C81.0057 63.2596 80.916 63.4363 80.7562 63.5665C80.5965 63.6968 80.3799 63.7699 80.154 63.7699C79.9281 63.7699 79.7114 63.6968 79.5517 63.5665C79.392 63.4363 79.3022 63.2596 79.3022 63.0754C79.3022 62.8912 79.392 62.7145 79.5517 62.5843C79.7114 62.454 79.9281 62.3809 80.154 62.3809C80.3799 62.3809 80.5965 62.454 80.7562 62.5843C80.916 62.7145 81.0057 62.8912 81.0057 63.0754ZM50.0713 47.5532C48.3822 48.342 47.6026 50.1631 48.2567 51.6474C48.6955 52.7163 49.8249 53.5761 51.1715 53.8405C52.4026 54.0825 53.7071 53.9809 54.9208 53.718C54.9153 53.3789 54.9144 53.0412 54.9153 52.7029C53.5733 53.104 51.9529 53.2564 50.6814 52.6192C49.6463 52.1098 49.1498 51.0565 49.3477 50.1019C49.5025 49.1562 50.3901 48.3323 51.515 48.0738C52.6417 47.7825 53.8381 48.0253 54.9162 48.339V47.3209C53.3462 46.9213 51.5278 46.8361 50.0732 47.5532M59.0942 47.0833C58.3587 47.2006 57.6625 47.4755 57.09 47.8677C55.5107 48.9067 55.1233 50.9064 56.2161 52.2973C57.4252 53.9585 60.3483 54.4687 62.3342 53.4513C64.0655 52.6439 64.8707 50.7734 64.115 49.263C63.3996 47.6503 61.1205 46.7226 59.0942 47.0826M73.8698 47.0975C72.6103 47.3186 71.4726 48.0051 70.901 48.953C70.2927 49.9249 70.3092 51.1409 70.944 52.1015C71.5559 53.0592 72.7495 53.7449 74.0539 53.9175C75.93 54.2147 77.9984 53.4289 78.8283 52.0089C79.7022 50.6151 79.1993 48.7753 77.6842 47.8139C76.6317 47.1147 75.1898 46.8637 73.8698 47.0968M88.4988 47.3963C87.4097 47.9409 87.2448 49.3049 88.0949 50.0556C88.9898 50.8354 90.4912 50.8892 91.3404 51.7086C91.7736 52.1426 91.3688 52.7589 90.7834 52.9225C89.8628 53.1944 88.7654 53.0704 87.9813 52.5848C87.7898 52.8784 87.5993 53.1735 87.4097 53.4693C88.2194 53.9197 89.2399 53.9974 90.1926 53.9653C91.0408 53.9264 91.9706 53.6695 92.4433 53.0562C92.9333 52.4003 92.8674 51.4599 92.1794 50.9116C91.4329 50.2744 90.3428 50.0616 89.4378 49.6208C89.0778 49.4453 88.7645 49.1368 88.792 48.776C88.7975 48.3674 89.239 48.0611 89.6998 47.9752C90.45 47.8557 91.2414 47.9678 91.9065 48.2733C92.0301 47.9864 92.1556 47.7004 92.2848 47.4143C91.1352 46.9257 89.6301 46.8264 88.4988 47.3963ZM3.77516 47.0878C3.77242 48.4974 3.77608 49.9062 3.77242 51.3165C3.75776 51.864 3.91715 52.4265 4.30371 52.8806C4.81394 53.5021 5.71074 53.8413 6.60112 53.9331C7.66829 54.0392 8.8399 53.9585 9.73394 53.4282C10.5126 52.9807 10.9138 52.1957 10.923 51.4345C10.9257 49.9854 10.922 48.5377 10.9239 47.0886C10.5117 47.0863 10.1004 47.0863 9.68997 47.0878C9.68448 48.4242 9.68723 49.762 9.68906 51.0991C9.68906 51.5951 9.57089 52.1255 9.15501 52.5072C8.78952 52.8448 8.2344 52.9994 7.69486 53.0353C6.97303 53.0883 6.17425 52.9987 5.62005 52.5848C5.14738 52.1972 4.99532 51.6287 4.9944 51.0984C4.9944 49.762 4.99715 48.4242 4.99349 47.0871C4.58677 47.0878 4.18188 47.0878 3.77608 47.0878M37.1562 53.9003C38.2637 53.8838 39.3776 53.9414 40.4842 53.8659C41.7465 53.7912 42.9978 53.2736 43.6884 52.3914C44.9049 50.9004 44.4332 48.6206 42.5288 47.6608C40.9239 46.8361 38.948 47.1506 37.1562 47.0863C37.1526 49.3579 37.1526 51.6287 37.1562 53.8995M80.5761 47.0871C80.5724 49.3586 80.5752 51.6295 80.5752 53.9003C80.98 53.901 81.3877 53.901 81.7944 53.9003C81.7953 52.9217 81.7944 51.9439 81.7944 50.9654C82.2808 50.9654 82.7681 50.9646 83.2555 50.9699C84.0002 51.9536 84.7523 52.9344 85.5217 53.9062C86.0081 53.8995 86.4946 53.9018 86.9801 53.8965C86.1309 52.8485 85.3184 51.7818 84.5004 50.7181C85.0884 50.5157 85.6069 50.1303 85.7709 49.6149C85.9669 48.9739 85.879 48.2046 85.2698 47.7243C84.7321 47.2529 83.9114 47.1199 83.1556 47.0946C82.2955 47.0744 81.4371 47.0938 80.577 47.0871M6.54341 57.0219C5.50188 57.2602 4.57669 57.8189 4.00784 58.5749C3.22921 59.6087 3.19074 60.9809 3.92081 62.0349C4.55837 62.9544 5.72081 63.605 7.00051 63.7873C8.72814 64.0338 10.6069 63.4153 11.5495 62.197C12.4481 61.0354 12.3831 59.457 11.3947 58.3448C10.3156 57.1302 8.28936 56.6088 6.54158 57.0219M12.4756 47.0871V53.8995L13.6326 53.8988L13.6335 48.7424L18.5306 53.9003L19.5913 53.8995L19.5923 47.0893L18.4344 47.0901V52.2614L13.4988 47.0916L12.4747 47.0886M21.471 47.0871L21.4701 53.898L22.7049 53.9003L22.704 47.0878L21.472 47.0871M23.7703 47.0871L23.7813 47.9894L26.2069 47.9805V53.8973L27.4408 53.898V47.9827L29.773 47.9835L29.7739 47.0863H23.7703M30.8604 47.0871V53.8995H35.7062L35.7052 53.0039L32.0805 53.0032V50.8309L35.4625 50.8317L35.4652 49.9592H32.0805L32.0796 47.9842L35.5999 47.9835L35.6008 47.0878H30.8604M65.8985 47.0871L65.8976 53.898L70.5483 53.8988L70.5474 53.0017H67.1333L67.1324 47.0886L65.9004 47.0863M13.4851 56.9763V63.7469L14.7465 63.7514L14.752 60.6335H17.97V59.7379L14.7501 59.7372V57.8354H17.9709L17.97 56.9763L13.486 56.9771M28.6555 56.9763C28.6546 59.2329 28.6555 61.4903 28.6555 63.7469C30.2768 63.7522 31.8982 63.7462 33.5187 63.7514C33.5159 63.4601 33.5159 63.168 33.5132 62.8767C32.3159 62.8775 31.1187 62.8745 29.9214 62.879C29.9187 62.1544 29.9214 61.4313 29.9205 60.7075C31.0491 60.7052 32.1785 60.7067 33.3062 60.7067V59.8231C32.1767 59.8223 31.0481 59.8231 29.9205 59.8231C29.9214 59.1605 29.9205 58.4979 29.9205 57.8354C31.0839 57.8354 32.2491 57.8376 33.4124 57.8346C33.4115 57.5485 33.4115 57.2624 33.4115 56.9763C31.8268 56.9786 30.2411 56.9763 28.6564 56.9771M34.8478 56.9763L34.8488 63.7507L36.0066 63.7499L36.0075 58.5831L40.9294 63.7507L42.0139 63.7477L42.0112 56.9763L40.8387 56.9756L40.8423 62.1529L35.9324 56.9816L34.846 56.9763M43.4952 56.9763V63.7522L48.3401 63.7492V62.879L44.7263 62.8812L44.7272 60.709L48.1156 60.7082V59.8246L44.7281 59.8238L44.7272 57.8383L48.2036 57.8376V56.9786H43.4942M48.9089 56.9763L48.908 57.8346L51.3474 57.8354V63.7522L52.5813 63.7477V57.8376L54.9135 57.8324L54.9144 56.9778L48.9089 56.9771M55.5684 56.9763L55.5694 57.8324L58.0088 57.8354L58.0078 63.7507H59.2426L59.2417 57.8354L61.5758 57.8331L61.5749 56.9748L55.5694 56.9756M64.5181 57.0211C63.3144 57.2953 62.2601 58.0087 61.7553 58.9454C61.1132 60.0554 61.3019 61.4433 62.2161 62.4158C63.4775 63.8351 66.0506 64.2511 67.9184 63.4175C69.4857 62.7572 70.4539 61.2483 70.1315 59.8223C69.9254 58.6242 68.8527 57.5717 67.4741 57.1444C66.5425 56.8329 65.4845 56.812 64.519 57.0219M71.1776 56.9763L71.1767 63.7484H72.3538L72.3456 58.595L77.2307 63.7514L78.3117 63.7469L78.3107 56.9756L77.1382 56.9763V62.135L72.242 56.9771L71.1785 56.9748M38.3846 47.9812C39.2649 48.0089 40.1755 47.8953 41.0274 48.1284C41.8829 48.3293 42.6011 48.8768 42.8924 49.5656C43.3587 50.5994 42.9978 51.9178 41.8317 52.5423C40.8277 53.1301 39.5452 52.9927 38.3846 53.0039V47.982V47.9812ZM59.206 48.0208C60.8072 47.6451 62.6246 48.5026 63.0268 49.8188C63.5049 51.1013 62.4955 52.5714 60.9236 52.9367C59.8197 53.2198 58.5291 52.9568 57.7422 52.2607C56.9947 51.6511 56.7007 50.7174 56.9553 49.8853C57.2127 48.9896 58.115 48.2471 59.206 48.0208ZM73.8442 48.0761C74.6897 47.8378 75.6579 47.914 76.4329 48.2793C77.2793 48.6692 77.8655 49.4027 77.9773 50.1885C78.1578 51.2313 77.4286 52.3159 76.2744 52.7776C75.003 53.3191 73.3055 53.0241 72.428 52.0948C71.5843 51.2851 71.5019 50.0227 72.21 49.1346C72.5956 48.652 73.1672 48.2576 73.8451 48.0753L73.8442 48.0761ZM81.7953 47.9558H82.6665C83.1117 47.9558 83.544 47.9633 83.9517 48.1224C84.7926 48.4384 84.8155 49.5641 84.003 49.9151C83.5907 50.0907 83.1245 50.1079 82.6665 50.1079H81.7953V47.9558ZM6.9373 57.9056C8.52478 57.5059 10.3642 58.3261 10.8011 59.6341C11.1611 60.5618 10.7791 61.639 9.88051 62.2761C9.01211 62.92 7.68936 63.1045 6.60845 62.731C5.41669 62.3486 4.59593 61.3208 4.65822 60.2757C4.69028 59.1956 5.65669 58.1842 6.9373 57.9056ZM64.9129 57.9056C66.4472 57.5104 68.2234 58.2656 68.7327 59.5034C69.1468 60.4065 68.8481 61.4933 67.9962 62.1641C67.181 62.8521 65.8674 63.0986 64.7636 62.7803C63.6579 62.4823 62.8143 61.6502 62.6686 60.7082C62.4304 59.4899 63.4518 58.2178 64.9138 57.9048L64.9129 57.9056ZM22.9495 57.8383H23.6933C24.2292 57.8383 24.7303 57.8227 25.2039 58.0378C25.933 58.3881 25.9001 59.3734 25.159 59.7035C24.7147 59.8888 24.1852 59.8776 23.6924 59.8776H22.9486L22.9495 57.8383ZM22.9404 60.7441H24.1339C24.6084 60.7404 25.0344 60.759 25.4787 60.9077C26.3306 61.2139 26.3993 62.3314 25.5684 62.684C25.1324 62.8655 24.6149 62.8864 24.1339 62.8864H22.9404V60.7441ZM21.7129 56.9793V63.7537C22.7342 63.7484 23.7556 63.7537 24.7761 63.7514C25.5694 63.7335 26.4231 63.546 26.9526 63.0321C27.8915 62.1544 27.4197 60.5103 25.9733 60.216C26.8765 59.8163 27.2466 58.8617 26.871 58.0931C26.5706 57.3916 25.6399 57.0017 24.7678 56.9823C23.7492 56.9726 22.7306 56.9823 21.712 56.9793" fill="white"/>
</g>
<defs>
<clipPath id="clip0_2119_392">
<rect width="120" height="120" fill="white" transform="translate(0 0.131836)"/>
</clipPath>
</defs>
</svg>
