<svg width="51" height="77" viewBox="0 0 51 77" fill="none" xmlns="http://www.w3.org/2000/svg">
<path d="M23.8 49.6222L23.8 53.0444L20.4 53.0444L20.4 56.4666L17 56.4666L17 59.8889L13.6 59.8889L13.6 63.3111L10.2 63.3111L10.2 66.7333L6.8 66.7333L6.8 70.1555L3.4 70.1555L3.4 73.5777L-1.04033e-06 73.5777L-1.18895e-06 77L7.65 77L9.35 77L9.35 73.5777L12.75 73.5777L12.75 70.1555L16.15 70.1555L16.15 66.7333L19.55 66.7333L19.55 63.3111L22.95 63.3111L22.95 59.8889L28.05 59.8889L28.05 63.3111L31.45 63.3111L31.45 66.7333L34.85 66.7333L34.85 70.1555L38.25 70.1555L38.25 73.5777L41.65 73.5777L41.65 77L45.05 77L51 77L51 73.5777L47.6 73.5777L47.6 70.1555L44.2 70.1555L44.2 66.7333L40.8 66.7333L40.8 63.3111L37.4 63.3111L37.4 59.8889L34 59.8889L34 56.4666L30.6 56.4666L30.6 53.0444L27.2 53.0444L27.2 49.6222L23.8 49.6222Z" fill="#DFDC01"/>
<path d="M23.8 25.6666L23.8 29.0888L20.4 29.0888L20.4 32.5111L17 32.5111L17 35.9333L13.6 35.9333L13.6 39.3555L10.2 39.3555L10.2 42.7777L6.8 42.7777L6.8 46.2L3.4 46.2L3.4 49.6222L-1.04033e-06 49.6222L-1.18895e-06 53.0444L7.65 53.0444L9.35 53.0444L9.35 49.6222L12.75 49.6222L12.75 46.2L16.15 46.2L16.15 42.7777L19.55 42.7777L19.55 39.3555L22.95 39.3555L22.95 35.9333L28.05 35.9333L28.05 39.3555L31.45 39.3555L31.45 42.7777L34.85 42.7777L34.85 46.2L38.25 46.2L38.25 49.6222L41.65 49.6222L41.65 53.0444L45.05 53.0444L51 53.0444L51 49.6222L47.6 49.6222L47.6 46.2L44.2 46.2L44.2 42.7777L40.8 42.7777L40.8 39.3555L37.4 39.3555L37.4 35.9333L34 35.9333L34 32.5111L30.6 32.5111L30.6 29.0888L27.2 29.0888L27.2 25.6666L23.8 25.6666Z" fill="#F5F5F5"/>
<path d="M23.8 -1.19672e-06L23.8 3.42222L20.4 3.42222L20.4 6.84444L17 6.84444L17 10.2667L13.6 10.2667L13.6 13.6889L10.2 13.6889L10.2 17.1111L6.8 17.1111L6.8 20.5333L3.4 20.5333L3.4 23.9556L-1.04033e-06 23.9556L-1.18895e-06 27.3778L7.65 27.3778L9.35 27.3778L9.35 23.9556L12.75 23.9556L12.75 20.5333L16.15 20.5333L16.15 17.1111L19.55 17.1111L19.55 13.6889L22.95 13.6889L22.95 10.2667L28.05 10.2667L28.05 13.6889L31.45 13.6889L31.45 17.1111L34.85 17.1111L34.85 20.5333L38.25 20.5333L38.25 23.9556L41.65 23.9556L41.65 27.3778L45.05 27.3778L51 27.3778L51 23.9556L47.6 23.9556L47.6 20.5333L44.2 20.5333L44.2 17.1111L40.8 17.1111L40.8 13.6889L37.4 13.6889L37.4 10.2667L34 10.2667L34 6.84444L30.6 6.84444L30.6 3.42222L27.2 3.42222L27.2 -1.04713e-06L23.8 -1.19672e-06Z" fill="#F5F5F5"/>
</svg>
