<svg width="40" height="41" viewBox="0 0 40 41" fill="none" xmlns="http://www.w3.org/2000/svg">
<path fill-rule="evenodd" clip-rule="evenodd" d="M39.0084 28.2403C38.1017 26.4144 36.907 24.7464 35.47 23.3003C34.9894 22.7572 34.4862 22.2345 33.9617 21.7337L33.8984 21.672C33.7036 21.4829 33.5114 21.2912 33.3217 21.097C35.286 18.3655 36.9669 15.4409 38.3384 12.3687L38.3934 12.2453L38.4317 12.1153C38.6134 11.5103 38.82 10.3603 38.0867 9.32033C37.3267 8.247 36.1117 8.05366 35.2967 8.05366H31.5517C30.7675 8.01793 29.9922 8.23116 29.3366 8.66284C28.681 9.09453 28.1787 9.72254 27.9017 10.457C27.0957 12.3764 26.0866 14.204 24.8917 15.9087V11.5203C24.8917 10.9537 24.8384 10.0037 24.23 9.20366C23.5034 8.24366 22.4517 8.05366 21.7217 8.05366H15.7784C15.0028 8.03582 14.2501 8.31693 13.6761 8.83879C13.1022 9.36064 12.7509 10.0833 12.695 10.857L12.69 10.932V11.007C12.69 11.8153 13.01 12.412 13.2667 12.787C13.3817 12.9553 13.5034 13.1087 13.5817 13.2053L13.5984 13.227C13.6817 13.3303 13.7367 13.3987 13.7917 13.4753C13.9384 13.672 14.1467 13.9787 14.2067 14.7687V17.2237C13.0136 15.2259 12.0354 13.1074 11.2884 10.9037L11.275 10.867L11.2617 10.832C11.0584 10.3003 10.7334 9.527 10.0817 8.937C9.32169 8.24533 8.42169 8.05366 7.60335 8.05366H3.80335C2.97502 8.05366 1.97669 8.247 1.23169 9.032C0.50002 9.80533 0.416687 10.732 0.416687 11.222V11.4453L0.463354 11.662C1.51552 16.5466 3.68375 21.1215 6.79835 25.0287C8.22231 27.2742 10.1555 29.1524 12.4411 30.5111C14.7267 31.8698 17.3004 32.6706 19.9534 32.8487L20.0217 32.8537H20.0917C21.3017 32.8537 22.5634 32.7487 23.5117 32.117C24.79 31.2637 24.8917 29.9553 24.8917 29.302V27.4053C25.22 27.672 25.6267 28.0287 26.125 28.5087C26.7284 29.112 27.2084 29.6353 27.62 30.092L27.84 30.3353C28.16 30.692 28.475 31.0437 28.7617 31.332C29.1217 31.6937 29.5667 32.092 30.1234 32.387C30.7284 32.7053 31.3634 32.8503 32.0367 32.8503H35.8384C36.64 32.8503 37.7884 32.6603 38.5967 31.7237C39.4767 30.7037 39.41 29.452 39.1334 28.5537L39.0834 28.392L39.0084 28.2403ZM29.475 28.417C28.9585 27.8396 28.4266 27.276 27.88 26.727L27.875 26.722C25.6134 24.542 24.5584 24.1637 23.8117 24.1637C23.4134 24.1637 22.975 24.207 22.69 24.5637C22.5617 24.7338 22.4775 24.9331 22.445 25.1437C22.4048 25.3882 22.387 25.6359 22.3917 25.8837V29.302C22.3917 29.727 22.3217 29.9053 22.125 30.0353C21.8634 30.2103 21.305 30.352 20.1067 30.352C17.8304 30.1971 15.6233 29.5042 13.667 28.3301C11.7106 27.1561 10.0609 25.5345 8.85335 23.5987L8.84002 23.577L8.82335 23.557C5.92188 19.9456 3.89976 15.7091 2.91669 11.182C2.92335 10.9653 2.97002 10.8337 3.04669 10.7537C3.12502 10.6703 3.31669 10.5537 3.80335 10.5537H7.60335C8.02502 10.5537 8.24502 10.647 8.40335 10.7887C8.58002 10.952 8.73669 11.227 8.92335 11.717C9.85669 14.4603 11.1167 17.027 12.3117 18.912C12.9084 19.8553 13.495 20.6403 14.025 21.1953C14.29 21.472 14.5484 21.702 14.7967 21.8653C15.035 22.022 15.3067 22.147 15.5867 22.147C15.7334 22.147 15.905 22.1303 16.07 22.0587C16.2482 21.98 16.3949 21.8438 16.4867 21.672C16.6584 21.3587 16.7067 20.897 16.7067 20.292V14.6703C16.6184 13.307 16.2067 12.5387 15.8067 11.9937C15.7257 11.8847 15.6423 11.7774 15.5567 11.672L15.535 11.6453C15.4639 11.559 15.3961 11.4701 15.3317 11.3787C15.2496 11.2767 15.2003 11.1524 15.19 11.022C15.2031 10.8896 15.2663 10.7671 15.3667 10.6798C15.4671 10.5924 15.597 10.5467 15.73 10.552H21.7217C22.065 10.552 22.18 10.6353 22.2384 10.7137C22.3217 10.822 22.3917 11.047 22.3917 11.5203V19.067C22.3917 19.9637 22.805 20.5703 23.405 20.5703C24.095 20.5703 24.5934 20.152 25.4634 19.282L25.4784 19.2653L25.4917 19.2503C27.4433 16.8708 29.0378 14.2196 30.225 11.3803L30.2317 11.3603C30.3209 11.1095 30.4897 10.8947 30.7124 10.7487C30.9351 10.6028 31.1994 10.5337 31.465 10.552H35.2984C35.8184 10.552 35.9884 10.6853 36.045 10.7637C36.1034 10.847 36.145 11.0253 36.045 11.3753C34.676 14.4359 32.9836 17.3413 30.9967 20.042L30.9834 20.062C30.7917 20.357 30.58 20.6837 30.55 21.057C30.5167 21.4603 30.69 21.8253 30.995 22.2187C31.2167 22.5453 31.675 22.9937 32.14 23.4487L32.1834 23.492C32.67 23.9687 33.1984 24.4853 33.6217 24.9853L33.6334 24.997L33.645 25.0103C34.9074 26.2695 35.9571 27.725 36.7534 29.3203C36.88 29.7537 36.8034 29.977 36.7034 30.092C36.5884 30.2253 36.33 30.3503 35.84 30.3503H32.0367C31.7775 30.3566 31.521 30.2964 31.2917 30.1753C31.0107 30.0119 30.7556 29.8074 30.535 29.5687C30.2967 29.3303 30.0384 29.042 29.7217 28.6903L29.4767 28.417H29.475Z" fill="#DFDC01"/>
</svg>
