<svg width="104" height="104" viewBox="0 0 104 104" fill="none" xmlns="http://www.w3.org/2000/svg">
<path d="M70.5664 32.1734C64.8209 33.6097 61.23 33.6097 54.7664 34.3278C48.3028 35.046 34.6574 44.3302 34.6574 58.0262C34.6574 63.6026 34.6574 65.2075 33.221 70.9525M70.5664 32.1734C68.4119 37.9185 68.7702 40.0841 68.4119 45.8179C67.6937 57.308 57.5964 67.2225 49.0211 68.08C41.8391 68.7981 39.6846 68.7981 33.221 70.9525M70.5664 32.1734C74.6062 21.4015 70.3387 6.38771 57.6391 2.73005M33.221 70.9525C30.5877 78.3732 27.4741 94.22 44.7104 101.114M44.7104 101.114C105.756 111.168 128.738 14.9383 57.6391 2.73005M44.7104 101.114C-27.1084 83.1608 1.61998 -8.04194 57.6391 2.73005" stroke="#2B2A28" stroke-width="3"/>
</svg>
